<svg xmlns="http://www.w3.org/2000/svg" xmlns:xlink="http://www.w3.org/1999/xlink" width="1920" height="1080" viewBox="0 0 1920 1080">
  <defs>
    <clipPath id="clip-path">
      <rect width="1942.748" height="1116.755" fill="none"/>
    </clipPath>
    <clipPath id="clip-Web_1920_1">
      <rect width="1920" height="1080"/>
    </clipPath>
  </defs>
  <g id="Web_1920_1" data-name="Web 1920 – 1" clip-path="url(#clip-Web_1920_1)">
    <rect width="1920" height="1080" fill="#fff"/>
    <rect id="Rectangle_1" data-name="Rectangle 1" width="1920" height="1080" fill="#6a8eae"/>
    <g id="Repeat_Grid_1" data-name="Repeat Grid 1" transform="translate(-18.748 -10.755)" opacity="0.042" clip-path="url(#clip-path)">
      <g id="Group_1" data-name="Group 1" transform="translate(0 0)">
        <path id="Path_1" data-name="Path 1" d="M23.989,21.181l.191,14.525,38.735-.5.6,41.306L79.5,76.3,78.7,20.47Z" fill="#154c7a"/>
        <path id="Path_2" data-name="Path 2" d="M15.979,0,0,.04.2,58.063l54.716-.131-.036-14.526L16.143,43.5Z" fill="#1c75bc"/>
      </g>
      <g id="Group_1-2" data-name="Group 1" transform="translate(100 0)">
        <path id="Path_1-2" data-name="Path 1" d="M23.989,21.181l.191,14.525,38.735-.5.6,41.306L79.5,76.3,78.7,20.47Z" fill="#154c7a"/>
        <path id="Path_2-2" data-name="Path 2" d="M15.979,0,0,.04.2,58.063l54.716-.131-.036-14.526L16.143,43.5Z" fill="#1c75bc"/>
      </g>
      <g id="Group_1-3" data-name="Group 1" transform="translate(200 0)">
        <path id="Path_1-3" data-name="Path 1" d="M23.989,21.181l.191,14.525,38.735-.5.6,41.306L79.5,76.3,78.7,20.47Z" fill="#154c7a"/>
        <path id="Path_2-3" data-name="Path 2" d="M15.979,0,0,.04.2,58.063l54.716-.131-.036-14.526L16.143,43.5Z" fill="#1c75bc"/>
      </g>
      <g id="Group_1-4" data-name="Group 1" transform="translate(300 0)">
        <path id="Path_1-4" data-name="Path 1" d="M23.989,21.181l.191,14.525,38.735-.5.6,41.306L79.5,76.3,78.7,20.47Z" fill="#154c7a"/>
        <path id="Path_2-4" data-name="Path 2" d="M15.979,0,0,.04.2,58.063l54.716-.131-.036-14.526L16.143,43.5Z" fill="#1c75bc"/>
      </g>
      <g id="Group_1-5" data-name="Group 1" transform="translate(400 0)">
        <path id="Path_1-5" data-name="Path 1" d="M23.989,21.181l.191,14.525,38.735-.5.6,41.306L79.5,76.3,78.7,20.47Z" fill="#154c7a"/>
        <path id="Path_2-5" data-name="Path 2" d="M15.979,0,0,.04.2,58.063l54.716-.131-.036-14.526L16.143,43.5Z" fill="#1c75bc"/>
      </g>
      <g id="Group_1-6" data-name="Group 1" transform="translate(500 0)">
        <path id="Path_1-6" data-name="Path 1" d="M23.989,21.181l.191,14.525,38.735-.5.6,41.306L79.5,76.3,78.7,20.47Z" fill="#154c7a"/>
        <path id="Path_2-6" data-name="Path 2" d="M15.979,0,0,.04.2,58.063l54.716-.131-.036-14.526L16.143,43.5Z" fill="#1c75bc"/>
      </g>
      <g id="Group_1-7" data-name="Group 1" transform="translate(600 0)">
        <path id="Path_1-7" data-name="Path 1" d="M23.989,21.181l.191,14.525,38.735-.5.6,41.306L79.5,76.3,78.7,20.47Z" fill="#154c7a"/>
        <path id="Path_2-7" data-name="Path 2" d="M15.979,0,0,.04.2,58.063l54.716-.131-.036-14.526L16.143,43.5Z" fill="#1c75bc"/>
      </g>
      <g id="Group_1-8" data-name="Group 1" transform="translate(700 0)">
        <path id="Path_1-8" data-name="Path 1" d="M23.989,21.181l.191,14.525,38.735-.5.6,41.306L79.5,76.3,78.7,20.47Z" fill="#154c7a"/>
        <path id="Path_2-8" data-name="Path 2" d="M15.979,0,0,.04.2,58.063l54.716-.131-.036-14.526L16.143,43.5Z" fill="#1c75bc"/>
      </g>
      <g id="Group_1-9" data-name="Group 1" transform="translate(800 0)">
        <path id="Path_1-9" data-name="Path 1" d="M23.989,21.181l.191,14.525,38.735-.5.6,41.306L79.5,76.3,78.7,20.47Z" fill="#154c7a"/>
        <path id="Path_2-9" data-name="Path 2" d="M15.979,0,0,.04.2,58.063l54.716-.131-.036-14.526L16.143,43.5Z" fill="#1c75bc"/>
      </g>
      <g id="Group_1-10" data-name="Group 1" transform="translate(900 0)">
        <path id="Path_1-10" data-name="Path 1" d="M23.989,21.181l.191,14.525,38.735-.5.6,41.306L79.5,76.3,78.7,20.47Z" fill="#154c7a"/>
        <path id="Path_2-10" data-name="Path 2" d="M15.979,0,0,.04.2,58.063l54.716-.131-.036-14.526L16.143,43.5Z" fill="#1c75bc"/>
      </g>
      <g id="Group_1-11" data-name="Group 1" transform="translate(1000 0)">
        <path id="Path_1-11" data-name="Path 1" d="M23.989,21.181l.191,14.525,38.735-.5.6,41.306L79.5,76.3,78.7,20.47Z" fill="#154c7a"/>
        <path id="Path_2-11" data-name="Path 2" d="M15.979,0,0,.04.2,58.063l54.716-.131-.036-14.526L16.143,43.5Z" fill="#1c75bc"/>
      </g>
      <g id="Group_1-12" data-name="Group 1" transform="translate(1100 0)">
        <path id="Path_1-12" data-name="Path 1" d="M23.989,21.181l.191,14.525,38.735-.5.6,41.306L79.5,76.3,78.7,20.47Z" fill="#154c7a"/>
        <path id="Path_2-12" data-name="Path 2" d="M15.979,0,0,.04.2,58.063l54.716-.131-.036-14.526L16.143,43.5Z" fill="#1c75bc"/>
      </g>
      <g id="Group_1-13" data-name="Group 1" transform="translate(1200 0)">
        <path id="Path_1-13" data-name="Path 1" d="M23.989,21.181l.191,14.525,38.735-.5.6,41.306L79.5,76.3,78.7,20.47Z" fill="#154c7a"/>
        <path id="Path_2-13" data-name="Path 2" d="M15.979,0,0,.04.2,58.063l54.716-.131-.036-14.526L16.143,43.5Z" fill="#1c75bc"/>
      </g>
      <g id="Group_1-14" data-name="Group 1" transform="translate(1300 0)">
        <path id="Path_1-14" data-name="Path 1" d="M23.989,21.181l.191,14.525,38.735-.5.6,41.306L79.5,76.3,78.7,20.47Z" fill="#154c7a"/>
        <path id="Path_2-14" data-name="Path 2" d="M15.979,0,0,.04.2,58.063l54.716-.131-.036-14.526L16.143,43.5Z" fill="#1c75bc"/>
      </g>
      <g id="Group_1-15" data-name="Group 1" transform="translate(1400 0)">
        <path id="Path_1-15" data-name="Path 1" d="M23.989,21.181l.191,14.525,38.735-.5.6,41.306L79.5,76.3,78.7,20.47Z" fill="#154c7a"/>
        <path id="Path_2-15" data-name="Path 2" d="M15.979,0,0,.04.2,58.063l54.716-.131-.036-14.526L16.143,43.5Z" fill="#1c75bc"/>
      </g>
      <g id="Group_1-16" data-name="Group 1" transform="translate(1500 0)">
        <path id="Path_1-16" data-name="Path 1" d="M23.989,21.181l.191,14.525,38.735-.5.6,41.306L79.5,76.3,78.7,20.47Z" fill="#154c7a"/>
        <path id="Path_2-16" data-name="Path 2" d="M15.979,0,0,.04.2,58.063l54.716-.131-.036-14.526L16.143,43.5Z" fill="#1c75bc"/>
      </g>
      <g id="Group_1-17" data-name="Group 1" transform="translate(1600 0)">
        <path id="Path_1-17" data-name="Path 1" d="M23.989,21.181l.191,14.525,38.735-.5.6,41.306L79.5,76.3,78.7,20.47Z" fill="#154c7a"/>
        <path id="Path_2-17" data-name="Path 2" d="M15.979,0,0,.04.2,58.063l54.716-.131-.036-14.526L16.143,43.5Z" fill="#1c75bc"/>
      </g>
      <g id="Group_1-18" data-name="Group 1" transform="translate(1700 0)">
        <path id="Path_1-18" data-name="Path 1" d="M23.989,21.181l.191,14.525,38.735-.5.6,41.306L79.5,76.3,78.7,20.47Z" fill="#154c7a"/>
        <path id="Path_2-18" data-name="Path 2" d="M15.979,0,0,.04.2,58.063l54.716-.131-.036-14.526L16.143,43.5Z" fill="#1c75bc"/>
      </g>
      <g id="Group_1-19" data-name="Group 1" transform="translate(1800 0)">
        <path id="Path_1-19" data-name="Path 1" d="M23.989,21.181l.191,14.525,38.735-.5.6,41.306L79.5,76.3,78.7,20.47Z" fill="#154c7a"/>
        <path id="Path_2-19" data-name="Path 2" d="M15.979,0,0,.04.2,58.063l54.716-.131-.036-14.526L16.143,43.5Z" fill="#1c75bc"/>
      </g>
      <g id="Group_1-20" data-name="Group 1" transform="translate(1900 0)">
        <path id="Path_1-20" data-name="Path 1" d="M23.989,21.181l.191,14.525,38.735-.5.6,41.306L79.5,76.3,78.7,20.47Z" fill="#154c7a"/>
        <path id="Path_2-20" data-name="Path 2" d="M15.979,0,0,.04.2,58.063l54.716-.131-.036-14.526L16.143,43.5Z" fill="#1c75bc"/>
      </g>
      <g id="Group_1-21" data-name="Group 1" transform="translate(0 97)">
        <path id="Path_1-21" data-name="Path 1" d="M23.989,21.181l.191,14.525,38.735-.5.6,41.306L79.5,76.3,78.7,20.47Z" fill="#154c7a"/>
        <path id="Path_2-21" data-name="Path 2" d="M15.979,0,0,.04.2,58.063l54.716-.131-.036-14.526L16.143,43.5Z" fill="#1c75bc"/>
      </g>
      <g id="Group_1-22" data-name="Group 1" transform="translate(100 97)">
        <path id="Path_1-22" data-name="Path 1" d="M23.989,21.181l.191,14.525,38.735-.5.6,41.306L79.5,76.3,78.7,20.47Z" fill="#154c7a"/>
        <path id="Path_2-22" data-name="Path 2" d="M15.979,0,0,.04.2,58.063l54.716-.131-.036-14.526L16.143,43.5Z" fill="#1c75bc"/>
      </g>
      <g id="Group_1-23" data-name="Group 1" transform="translate(200 97)">
        <path id="Path_1-23" data-name="Path 1" d="M23.989,21.181l.191,14.525,38.735-.5.6,41.306L79.5,76.3,78.7,20.47Z" fill="#154c7a"/>
        <path id="Path_2-23" data-name="Path 2" d="M15.979,0,0,.04.2,58.063l54.716-.131-.036-14.526L16.143,43.5Z" fill="#1c75bc"/>
      </g>
      <g id="Group_1-24" data-name="Group 1" transform="translate(300 97)">
        <path id="Path_1-24" data-name="Path 1" d="M23.989,21.181l.191,14.525,38.735-.5.6,41.306L79.5,76.3,78.7,20.47Z" fill="#154c7a"/>
        <path id="Path_2-24" data-name="Path 2" d="M15.979,0,0,.04.2,58.063l54.716-.131-.036-14.526L16.143,43.5Z" fill="#1c75bc"/>
      </g>
      <g id="Group_1-25" data-name="Group 1" transform="translate(400 97)">
        <path id="Path_1-25" data-name="Path 1" d="M23.989,21.181l.191,14.525,38.735-.5.6,41.306L79.5,76.3,78.7,20.47Z" fill="#154c7a"/>
        <path id="Path_2-25" data-name="Path 2" d="M15.979,0,0,.04.2,58.063l54.716-.131-.036-14.526L16.143,43.5Z" fill="#1c75bc"/>
      </g>
      <g id="Group_1-26" data-name="Group 1" transform="translate(500 97)">
        <path id="Path_1-26" data-name="Path 1" d="M23.989,21.181l.191,14.525,38.735-.5.6,41.306L79.5,76.3,78.7,20.47Z" fill="#154c7a"/>
        <path id="Path_2-26" data-name="Path 2" d="M15.979,0,0,.04.2,58.063l54.716-.131-.036-14.526L16.143,43.5Z" fill="#1c75bc"/>
      </g>
      <g id="Group_1-27" data-name="Group 1" transform="translate(600 97)">
        <path id="Path_1-27" data-name="Path 1" d="M23.989,21.181l.191,14.525,38.735-.5.6,41.306L79.5,76.3,78.7,20.47Z" fill="#154c7a"/>
        <path id="Path_2-27" data-name="Path 2" d="M15.979,0,0,.04.2,58.063l54.716-.131-.036-14.526L16.143,43.5Z" fill="#1c75bc"/>
      </g>
      <g id="Group_1-28" data-name="Group 1" transform="translate(700 97)">
        <path id="Path_1-28" data-name="Path 1" d="M23.989,21.181l.191,14.525,38.735-.5.6,41.306L79.5,76.3,78.7,20.47Z" fill="#154c7a"/>
        <path id="Path_2-28" data-name="Path 2" d="M15.979,0,0,.04.2,58.063l54.716-.131-.036-14.526L16.143,43.5Z" fill="#1c75bc"/>
      </g>
      <g id="Group_1-29" data-name="Group 1" transform="translate(800 97)">
        <path id="Path_1-29" data-name="Path 1" d="M23.989,21.181l.191,14.525,38.735-.5.6,41.306L79.5,76.3,78.7,20.47Z" fill="#154c7a"/>
        <path id="Path_2-29" data-name="Path 2" d="M15.979,0,0,.04.2,58.063l54.716-.131-.036-14.526L16.143,43.5Z" fill="#1c75bc"/>
      </g>
      <g id="Group_1-30" data-name="Group 1" transform="translate(900 97)">
        <path id="Path_1-30" data-name="Path 1" d="M23.989,21.181l.191,14.525,38.735-.5.6,41.306L79.5,76.3,78.7,20.47Z" fill="#154c7a"/>
        <path id="Path_2-30" data-name="Path 2" d="M15.979,0,0,.04.2,58.063l54.716-.131-.036-14.526L16.143,43.5Z" fill="#1c75bc"/>
      </g>
      <g id="Group_1-31" data-name="Group 1" transform="translate(1000 97)">
        <path id="Path_1-31" data-name="Path 1" d="M23.989,21.181l.191,14.525,38.735-.5.6,41.306L79.5,76.3,78.7,20.47Z" fill="#154c7a"/>
        <path id="Path_2-31" data-name="Path 2" d="M15.979,0,0,.04.2,58.063l54.716-.131-.036-14.526L16.143,43.5Z" fill="#1c75bc"/>
      </g>
      <g id="Group_1-32" data-name="Group 1" transform="translate(1100 97)">
        <path id="Path_1-32" data-name="Path 1" d="M23.989,21.181l.191,14.525,38.735-.5.6,41.306L79.5,76.3,78.7,20.47Z" fill="#154c7a"/>
        <path id="Path_2-32" data-name="Path 2" d="M15.979,0,0,.04.2,58.063l54.716-.131-.036-14.526L16.143,43.5Z" fill="#1c75bc"/>
      </g>
      <g id="Group_1-33" data-name="Group 1" transform="translate(1200 97)">
        <path id="Path_1-33" data-name="Path 1" d="M23.989,21.181l.191,14.525,38.735-.5.6,41.306L79.5,76.3,78.7,20.47Z" fill="#154c7a"/>
        <path id="Path_2-33" data-name="Path 2" d="M15.979,0,0,.04.2,58.063l54.716-.131-.036-14.526L16.143,43.5Z" fill="#1c75bc"/>
      </g>
      <g id="Group_1-34" data-name="Group 1" transform="translate(1300 97)">
        <path id="Path_1-34" data-name="Path 1" d="M23.989,21.181l.191,14.525,38.735-.5.6,41.306L79.5,76.3,78.7,20.47Z" fill="#154c7a"/>
        <path id="Path_2-34" data-name="Path 2" d="M15.979,0,0,.04.2,58.063l54.716-.131-.036-14.526L16.143,43.5Z" fill="#1c75bc"/>
      </g>
      <g id="Group_1-35" data-name="Group 1" transform="translate(1400 97)">
        <path id="Path_1-35" data-name="Path 1" d="M23.989,21.181l.191,14.525,38.735-.5.6,41.306L79.5,76.3,78.7,20.47Z" fill="#154c7a"/>
        <path id="Path_2-35" data-name="Path 2" d="M15.979,0,0,.04.2,58.063l54.716-.131-.036-14.526L16.143,43.5Z" fill="#1c75bc"/>
      </g>
      <g id="Group_1-36" data-name="Group 1" transform="translate(1500 97)">
        <path id="Path_1-36" data-name="Path 1" d="M23.989,21.181l.191,14.525,38.735-.5.6,41.306L79.5,76.3,78.7,20.47Z" fill="#154c7a"/>
        <path id="Path_2-36" data-name="Path 2" d="M15.979,0,0,.04.2,58.063l54.716-.131-.036-14.526L16.143,43.5Z" fill="#1c75bc"/>
      </g>
      <g id="Group_1-37" data-name="Group 1" transform="translate(1600 97)">
        <path id="Path_1-37" data-name="Path 1" d="M23.989,21.181l.191,14.525,38.735-.5.6,41.306L79.5,76.3,78.7,20.47Z" fill="#154c7a"/>
        <path id="Path_2-37" data-name="Path 2" d="M15.979,0,0,.04.2,58.063l54.716-.131-.036-14.526L16.143,43.5Z" fill="#1c75bc"/>
      </g>
      <g id="Group_1-38" data-name="Group 1" transform="translate(1700 97)">
        <path id="Path_1-38" data-name="Path 1" d="M23.989,21.181l.191,14.525,38.735-.5.6,41.306L79.5,76.3,78.7,20.47Z" fill="#154c7a"/>
        <path id="Path_2-38" data-name="Path 2" d="M15.979,0,0,.04.2,58.063l54.716-.131-.036-14.526L16.143,43.5Z" fill="#1c75bc"/>
      </g>
      <g id="Group_1-39" data-name="Group 1" transform="translate(1800 97)">
        <path id="Path_1-39" data-name="Path 1" d="M23.989,21.181l.191,14.525,38.735-.5.6,41.306L79.5,76.3,78.7,20.47Z" fill="#154c7a"/>
        <path id="Path_2-39" data-name="Path 2" d="M15.979,0,0,.04.2,58.063l54.716-.131-.036-14.526L16.143,43.5Z" fill="#1c75bc"/>
      </g>
      <g id="Group_1-40" data-name="Group 1" transform="translate(1900 97)">
        <path id="Path_1-40" data-name="Path 1" d="M23.989,21.181l.191,14.525,38.735-.5.6,41.306L79.5,76.3,78.7,20.47Z" fill="#154c7a"/>
        <path id="Path_2-40" data-name="Path 2" d="M15.979,0,0,.04.2,58.063l54.716-.131-.036-14.526L16.143,43.5Z" fill="#1c75bc"/>
      </g>
      <g id="Group_1-41" data-name="Group 1" transform="translate(0 194)">
        <path id="Path_1-41" data-name="Path 1" d="M23.989,21.181l.191,14.525,38.735-.5.6,41.306L79.5,76.3,78.7,20.47Z" fill="#154c7a"/>
        <path id="Path_2-41" data-name="Path 2" d="M15.979,0,0,.04.2,58.063l54.716-.131-.036-14.526L16.143,43.5Z" fill="#1c75bc"/>
      </g>
      <g id="Group_1-42" data-name="Group 1" transform="translate(100 194)">
        <path id="Path_1-42" data-name="Path 1" d="M23.989,21.181l.191,14.525,38.735-.5.6,41.306L79.5,76.3,78.7,20.47Z" fill="#154c7a"/>
        <path id="Path_2-42" data-name="Path 2" d="M15.979,0,0,.04.2,58.063l54.716-.131-.036-14.526L16.143,43.5Z" fill="#1c75bc"/>
      </g>
      <g id="Group_1-43" data-name="Group 1" transform="translate(200 194)">
        <path id="Path_1-43" data-name="Path 1" d="M23.989,21.181l.191,14.525,38.735-.5.6,41.306L79.5,76.3,78.7,20.47Z" fill="#154c7a"/>
        <path id="Path_2-43" data-name="Path 2" d="M15.979,0,0,.04.2,58.063l54.716-.131-.036-14.526L16.143,43.5Z" fill="#1c75bc"/>
      </g>
      <g id="Group_1-44" data-name="Group 1" transform="translate(300 194)">
        <path id="Path_1-44" data-name="Path 1" d="M23.989,21.181l.191,14.525,38.735-.5.6,41.306L79.5,76.3,78.7,20.47Z" fill="#154c7a"/>
        <path id="Path_2-44" data-name="Path 2" d="M15.979,0,0,.04.2,58.063l54.716-.131-.036-14.526L16.143,43.5Z" fill="#1c75bc"/>
      </g>
      <g id="Group_1-45" data-name="Group 1" transform="translate(400 194)">
        <path id="Path_1-45" data-name="Path 1" d="M23.989,21.181l.191,14.525,38.735-.5.6,41.306L79.5,76.3,78.7,20.47Z" fill="#154c7a"/>
        <path id="Path_2-45" data-name="Path 2" d="M15.979,0,0,.04.2,58.063l54.716-.131-.036-14.526L16.143,43.5Z" fill="#1c75bc"/>
      </g>
      <g id="Group_1-46" data-name="Group 1" transform="translate(500 194)">
        <path id="Path_1-46" data-name="Path 1" d="M23.989,21.181l.191,14.525,38.735-.5.6,41.306L79.5,76.3,78.7,20.47Z" fill="#154c7a"/>
        <path id="Path_2-46" data-name="Path 2" d="M15.979,0,0,.04.2,58.063l54.716-.131-.036-14.526L16.143,43.5Z" fill="#1c75bc"/>
      </g>
      <g id="Group_1-47" data-name="Group 1" transform="translate(600 194)">
        <path id="Path_1-47" data-name="Path 1" d="M23.989,21.181l.191,14.525,38.735-.5.6,41.306L79.5,76.3,78.7,20.47Z" fill="#154c7a"/>
        <path id="Path_2-47" data-name="Path 2" d="M15.979,0,0,.04.2,58.063l54.716-.131-.036-14.526L16.143,43.5Z" fill="#1c75bc"/>
      </g>
      <g id="Group_1-48" data-name="Group 1" transform="translate(700 194)">
        <path id="Path_1-48" data-name="Path 1" d="M23.989,21.181l.191,14.525,38.735-.5.6,41.306L79.5,76.3,78.7,20.47Z" fill="#154c7a"/>
        <path id="Path_2-48" data-name="Path 2" d="M15.979,0,0,.04.2,58.063l54.716-.131-.036-14.526L16.143,43.5Z" fill="#1c75bc"/>
      </g>
      <g id="Group_1-49" data-name="Group 1" transform="translate(800 194)">
        <path id="Path_1-49" data-name="Path 1" d="M23.989,21.181l.191,14.525,38.735-.5.6,41.306L79.5,76.3,78.7,20.47Z" fill="#154c7a"/>
        <path id="Path_2-49" data-name="Path 2" d="M15.979,0,0,.04.2,58.063l54.716-.131-.036-14.526L16.143,43.5Z" fill="#1c75bc"/>
      </g>
      <g id="Group_1-50" data-name="Group 1" transform="translate(900 194)">
        <path id="Path_1-50" data-name="Path 1" d="M23.989,21.181l.191,14.525,38.735-.5.6,41.306L79.5,76.3,78.7,20.47Z" fill="#154c7a"/>
        <path id="Path_2-50" data-name="Path 2" d="M15.979,0,0,.04.2,58.063l54.716-.131-.036-14.526L16.143,43.5Z" fill="#1c75bc"/>
      </g>
      <g id="Group_1-51" data-name="Group 1" transform="translate(1000 194)">
        <path id="Path_1-51" data-name="Path 1" d="M23.989,21.181l.191,14.525,38.735-.5.6,41.306L79.5,76.3,78.7,20.47Z" fill="#154c7a"/>
        <path id="Path_2-51" data-name="Path 2" d="M15.979,0,0,.04.2,58.063l54.716-.131-.036-14.526L16.143,43.5Z" fill="#1c75bc"/>
      </g>
      <g id="Group_1-52" data-name="Group 1" transform="translate(1100 194)">
        <path id="Path_1-52" data-name="Path 1" d="M23.989,21.181l.191,14.525,38.735-.5.6,41.306L79.5,76.3,78.7,20.47Z" fill="#154c7a"/>
        <path id="Path_2-52" data-name="Path 2" d="M15.979,0,0,.04.2,58.063l54.716-.131-.036-14.526L16.143,43.5Z" fill="#1c75bc"/>
      </g>
      <g id="Group_1-53" data-name="Group 1" transform="translate(1200 194)">
        <path id="Path_1-53" data-name="Path 1" d="M23.989,21.181l.191,14.525,38.735-.5.6,41.306L79.5,76.3,78.7,20.47Z" fill="#154c7a"/>
        <path id="Path_2-53" data-name="Path 2" d="M15.979,0,0,.04.2,58.063l54.716-.131-.036-14.526L16.143,43.5Z" fill="#1c75bc"/>
      </g>
      <g id="Group_1-54" data-name="Group 1" transform="translate(1300 194)">
        <path id="Path_1-54" data-name="Path 1" d="M23.989,21.181l.191,14.525,38.735-.5.6,41.306L79.5,76.3,78.7,20.47Z" fill="#154c7a"/>
        <path id="Path_2-54" data-name="Path 2" d="M15.979,0,0,.04.2,58.063l54.716-.131-.036-14.526L16.143,43.5Z" fill="#1c75bc"/>
      </g>
      <g id="Group_1-55" data-name="Group 1" transform="translate(1400 194)">
        <path id="Path_1-55" data-name="Path 1" d="M23.989,21.181l.191,14.525,38.735-.5.6,41.306L79.5,76.3,78.7,20.47Z" fill="#154c7a"/>
        <path id="Path_2-55" data-name="Path 2" d="M15.979,0,0,.04.2,58.063l54.716-.131-.036-14.526L16.143,43.5Z" fill="#1c75bc"/>
      </g>
      <g id="Group_1-56" data-name="Group 1" transform="translate(1500 194)">
        <path id="Path_1-56" data-name="Path 1" d="M23.989,21.181l.191,14.525,38.735-.5.6,41.306L79.5,76.3,78.7,20.47Z" fill="#154c7a"/>
        <path id="Path_2-56" data-name="Path 2" d="M15.979,0,0,.04.2,58.063l54.716-.131-.036-14.526L16.143,43.5Z" fill="#1c75bc"/>
      </g>
      <g id="Group_1-57" data-name="Group 1" transform="translate(1600 194)">
        <path id="Path_1-57" data-name="Path 1" d="M23.989,21.181l.191,14.525,38.735-.5.6,41.306L79.5,76.3,78.7,20.47Z" fill="#154c7a"/>
        <path id="Path_2-57" data-name="Path 2" d="M15.979,0,0,.04.2,58.063l54.716-.131-.036-14.526L16.143,43.5Z" fill="#1c75bc"/>
      </g>
      <g id="Group_1-58" data-name="Group 1" transform="translate(1700 194)">
        <path id="Path_1-58" data-name="Path 1" d="M23.989,21.181l.191,14.525,38.735-.5.6,41.306L79.5,76.3,78.7,20.47Z" fill="#154c7a"/>
        <path id="Path_2-58" data-name="Path 2" d="M15.979,0,0,.04.2,58.063l54.716-.131-.036-14.526L16.143,43.5Z" fill="#1c75bc"/>
      </g>
      <g id="Group_1-59" data-name="Group 1" transform="translate(1800 194)">
        <path id="Path_1-59" data-name="Path 1" d="M23.989,21.181l.191,14.525,38.735-.5.6,41.306L79.5,76.3,78.7,20.47Z" fill="#154c7a"/>
        <path id="Path_2-59" data-name="Path 2" d="M15.979,0,0,.04.2,58.063l54.716-.131-.036-14.526L16.143,43.5Z" fill="#1c75bc"/>
      </g>
      <g id="Group_1-60" data-name="Group 1" transform="translate(1900 194)">
        <path id="Path_1-60" data-name="Path 1" d="M23.989,21.181l.191,14.525,38.735-.5.6,41.306L79.5,76.3,78.7,20.47Z" fill="#154c7a"/>
        <path id="Path_2-60" data-name="Path 2" d="M15.979,0,0,.04.2,58.063l54.716-.131-.036-14.526L16.143,43.5Z" fill="#1c75bc"/>
      </g>
      <g id="Group_1-61" data-name="Group 1" transform="translate(0 291)">
        <path id="Path_1-61" data-name="Path 1" d="M23.989,21.181l.191,14.525,38.735-.5.6,41.306L79.5,76.3,78.7,20.47Z" fill="#154c7a"/>
        <path id="Path_2-61" data-name="Path 2" d="M15.979,0,0,.04.2,58.063l54.716-.131-.036-14.526L16.143,43.5Z" fill="#1c75bc"/>
      </g>
      <g id="Group_1-62" data-name="Group 1" transform="translate(100 291)">
        <path id="Path_1-62" data-name="Path 1" d="M23.989,21.181l.191,14.525,38.735-.5.6,41.306L79.5,76.3,78.7,20.47Z" fill="#154c7a"/>
        <path id="Path_2-62" data-name="Path 2" d="M15.979,0,0,.04.2,58.063l54.716-.131-.036-14.526L16.143,43.5Z" fill="#1c75bc"/>
      </g>
      <g id="Group_1-63" data-name="Group 1" transform="translate(200 291)">
        <path id="Path_1-63" data-name="Path 1" d="M23.989,21.181l.191,14.525,38.735-.5.6,41.306L79.5,76.3,78.7,20.47Z" fill="#154c7a"/>
        <path id="Path_2-63" data-name="Path 2" d="M15.979,0,0,.04.2,58.063l54.716-.131-.036-14.526L16.143,43.5Z" fill="#1c75bc"/>
      </g>
      <g id="Group_1-64" data-name="Group 1" transform="translate(300 291)">
        <path id="Path_1-64" data-name="Path 1" d="M23.989,21.181l.191,14.525,38.735-.5.6,41.306L79.5,76.3,78.7,20.47Z" fill="#154c7a"/>
        <path id="Path_2-64" data-name="Path 2" d="M15.979,0,0,.04.2,58.063l54.716-.131-.036-14.526L16.143,43.5Z" fill="#1c75bc"/>
      </g>
      <g id="Group_1-65" data-name="Group 1" transform="translate(400 291)">
        <path id="Path_1-65" data-name="Path 1" d="M23.989,21.181l.191,14.525,38.735-.5.6,41.306L79.5,76.3,78.7,20.47Z" fill="#154c7a"/>
        <path id="Path_2-65" data-name="Path 2" d="M15.979,0,0,.04.2,58.063l54.716-.131-.036-14.526L16.143,43.5Z" fill="#1c75bc"/>
      </g>
      <g id="Group_1-66" data-name="Group 1" transform="translate(500 291)">
        <path id="Path_1-66" data-name="Path 1" d="M23.989,21.181l.191,14.525,38.735-.5.6,41.306L79.5,76.3,78.7,20.47Z" fill="#154c7a"/>
        <path id="Path_2-66" data-name="Path 2" d="M15.979,0,0,.04.2,58.063l54.716-.131-.036-14.526L16.143,43.5Z" fill="#1c75bc"/>
      </g>
      <g id="Group_1-67" data-name="Group 1" transform="translate(600 291)">
        <path id="Path_1-67" data-name="Path 1" d="M23.989,21.181l.191,14.525,38.735-.5.6,41.306L79.5,76.3,78.7,20.47Z" fill="#154c7a"/>
        <path id="Path_2-67" data-name="Path 2" d="M15.979,0,0,.04.2,58.063l54.716-.131-.036-14.526L16.143,43.5Z" fill="#1c75bc"/>
      </g>
      <g id="Group_1-68" data-name="Group 1" transform="translate(700 291)">
        <path id="Path_1-68" data-name="Path 1" d="M23.989,21.181l.191,14.525,38.735-.5.6,41.306L79.5,76.3,78.7,20.47Z" fill="#154c7a"/>
        <path id="Path_2-68" data-name="Path 2" d="M15.979,0,0,.04.2,58.063l54.716-.131-.036-14.526L16.143,43.5Z" fill="#1c75bc"/>
      </g>
      <g id="Group_1-69" data-name="Group 1" transform="translate(800 291)">
        <path id="Path_1-69" data-name="Path 1" d="M23.989,21.181l.191,14.525,38.735-.5.6,41.306L79.5,76.3,78.7,20.47Z" fill="#154c7a"/>
        <path id="Path_2-69" data-name="Path 2" d="M15.979,0,0,.04.2,58.063l54.716-.131-.036-14.526L16.143,43.5Z" fill="#1c75bc"/>
      </g>
      <g id="Group_1-70" data-name="Group 1" transform="translate(900 291)">
        <path id="Path_1-70" data-name="Path 1" d="M23.989,21.181l.191,14.525,38.735-.5.6,41.306L79.5,76.3,78.7,20.47Z" fill="#154c7a"/>
        <path id="Path_2-70" data-name="Path 2" d="M15.979,0,0,.04.2,58.063l54.716-.131-.036-14.526L16.143,43.5Z" fill="#1c75bc"/>
      </g>
      <g id="Group_1-71" data-name="Group 1" transform="translate(1000 291)">
        <path id="Path_1-71" data-name="Path 1" d="M23.989,21.181l.191,14.525,38.735-.5.6,41.306L79.5,76.3,78.7,20.47Z" fill="#154c7a"/>
        <path id="Path_2-71" data-name="Path 2" d="M15.979,0,0,.04.2,58.063l54.716-.131-.036-14.526L16.143,43.5Z" fill="#1c75bc"/>
      </g>
      <g id="Group_1-72" data-name="Group 1" transform="translate(1100 291)">
        <path id="Path_1-72" data-name="Path 1" d="M23.989,21.181l.191,14.525,38.735-.5.6,41.306L79.5,76.3,78.7,20.47Z" fill="#154c7a"/>
        <path id="Path_2-72" data-name="Path 2" d="M15.979,0,0,.04.2,58.063l54.716-.131-.036-14.526L16.143,43.5Z" fill="#1c75bc"/>
      </g>
      <g id="Group_1-73" data-name="Group 1" transform="translate(1200 291)">
        <path id="Path_1-73" data-name="Path 1" d="M23.989,21.181l.191,14.525,38.735-.5.6,41.306L79.5,76.3,78.7,20.47Z" fill="#154c7a"/>
        <path id="Path_2-73" data-name="Path 2" d="M15.979,0,0,.04.2,58.063l54.716-.131-.036-14.526L16.143,43.5Z" fill="#1c75bc"/>
      </g>
      <g id="Group_1-74" data-name="Group 1" transform="translate(1300 291)">
        <path id="Path_1-74" data-name="Path 1" d="M23.989,21.181l.191,14.525,38.735-.5.6,41.306L79.5,76.3,78.7,20.47Z" fill="#154c7a"/>
        <path id="Path_2-74" data-name="Path 2" d="M15.979,0,0,.04.2,58.063l54.716-.131-.036-14.526L16.143,43.5Z" fill="#1c75bc"/>
      </g>
      <g id="Group_1-75" data-name="Group 1" transform="translate(1400 291)">
        <path id="Path_1-75" data-name="Path 1" d="M23.989,21.181l.191,14.525,38.735-.5.6,41.306L79.5,76.3,78.7,20.47Z" fill="#154c7a"/>
        <path id="Path_2-75" data-name="Path 2" d="M15.979,0,0,.04.2,58.063l54.716-.131-.036-14.526L16.143,43.5Z" fill="#1c75bc"/>
      </g>
      <g id="Group_1-76" data-name="Group 1" transform="translate(1500 291)">
        <path id="Path_1-76" data-name="Path 1" d="M23.989,21.181l.191,14.525,38.735-.5.6,41.306L79.5,76.3,78.7,20.47Z" fill="#154c7a"/>
        <path id="Path_2-76" data-name="Path 2" d="M15.979,0,0,.04.2,58.063l54.716-.131-.036-14.526L16.143,43.5Z" fill="#1c75bc"/>
      </g>
      <g id="Group_1-77" data-name="Group 1" transform="translate(1600 291)">
        <path id="Path_1-77" data-name="Path 1" d="M23.989,21.181l.191,14.525,38.735-.5.6,41.306L79.5,76.3,78.7,20.47Z" fill="#154c7a"/>
        <path id="Path_2-77" data-name="Path 2" d="M15.979,0,0,.04.2,58.063l54.716-.131-.036-14.526L16.143,43.5Z" fill="#1c75bc"/>
      </g>
      <g id="Group_1-78" data-name="Group 1" transform="translate(1700 291)">
        <path id="Path_1-78" data-name="Path 1" d="M23.989,21.181l.191,14.525,38.735-.5.6,41.306L79.5,76.3,78.7,20.47Z" fill="#154c7a"/>
        <path id="Path_2-78" data-name="Path 2" d="M15.979,0,0,.04.2,58.063l54.716-.131-.036-14.526L16.143,43.5Z" fill="#1c75bc"/>
      </g>
      <g id="Group_1-79" data-name="Group 1" transform="translate(1800 291)">
        <path id="Path_1-79" data-name="Path 1" d="M23.989,21.181l.191,14.525,38.735-.5.6,41.306L79.5,76.3,78.7,20.47Z" fill="#154c7a"/>
        <path id="Path_2-79" data-name="Path 2" d="M15.979,0,0,.04.2,58.063l54.716-.131-.036-14.526L16.143,43.5Z" fill="#1c75bc"/>
      </g>
      <g id="Group_1-80" data-name="Group 1" transform="translate(1900 291)">
        <path id="Path_1-80" data-name="Path 1" d="M23.989,21.181l.191,14.525,38.735-.5.6,41.306L79.5,76.3,78.7,20.47Z" fill="#154c7a"/>
        <path id="Path_2-80" data-name="Path 2" d="M15.979,0,0,.04.2,58.063l54.716-.131-.036-14.526L16.143,43.5Z" fill="#1c75bc"/>
      </g>
      <g id="Group_1-81" data-name="Group 1" transform="translate(0 388)">
        <path id="Path_1-81" data-name="Path 1" d="M23.989,21.181l.191,14.525,38.735-.5.6,41.306L79.5,76.3,78.7,20.47Z" fill="#154c7a"/>
        <path id="Path_2-81" data-name="Path 2" d="M15.979,0,0,.04.2,58.063l54.716-.131-.036-14.526L16.143,43.5Z" fill="#1c75bc"/>
      </g>
      <g id="Group_1-82" data-name="Group 1" transform="translate(100 388)">
        <path id="Path_1-82" data-name="Path 1" d="M23.989,21.181l.191,14.525,38.735-.5.6,41.306L79.5,76.3,78.7,20.47Z" fill="#154c7a"/>
        <path id="Path_2-82" data-name="Path 2" d="M15.979,0,0,.04.2,58.063l54.716-.131-.036-14.526L16.143,43.5Z" fill="#1c75bc"/>
      </g>
      <g id="Group_1-83" data-name="Group 1" transform="translate(200 388)">
        <path id="Path_1-83" data-name="Path 1" d="M23.989,21.181l.191,14.525,38.735-.5.6,41.306L79.5,76.3,78.7,20.47Z" fill="#154c7a"/>
        <path id="Path_2-83" data-name="Path 2" d="M15.979,0,0,.04.2,58.063l54.716-.131-.036-14.526L16.143,43.5Z" fill="#1c75bc"/>
      </g>
      <g id="Group_1-84" data-name="Group 1" transform="translate(300 388)">
        <path id="Path_1-84" data-name="Path 1" d="M23.989,21.181l.191,14.525,38.735-.5.6,41.306L79.5,76.3,78.7,20.47Z" fill="#154c7a"/>
        <path id="Path_2-84" data-name="Path 2" d="M15.979,0,0,.04.2,58.063l54.716-.131-.036-14.526L16.143,43.5Z" fill="#1c75bc"/>
      </g>
      <g id="Group_1-85" data-name="Group 1" transform="translate(400 388)">
        <path id="Path_1-85" data-name="Path 1" d="M23.989,21.181l.191,14.525,38.735-.5.6,41.306L79.5,76.3,78.7,20.47Z" fill="#154c7a"/>
        <path id="Path_2-85" data-name="Path 2" d="M15.979,0,0,.04.2,58.063l54.716-.131-.036-14.526L16.143,43.5Z" fill="#1c75bc"/>
      </g>
      <g id="Group_1-86" data-name="Group 1" transform="translate(500 388)">
        <path id="Path_1-86" data-name="Path 1" d="M23.989,21.181l.191,14.525,38.735-.5.6,41.306L79.5,76.3,78.7,20.47Z" fill="#154c7a"/>
        <path id="Path_2-86" data-name="Path 2" d="M15.979,0,0,.04.2,58.063l54.716-.131-.036-14.526L16.143,43.5Z" fill="#1c75bc"/>
      </g>
      <g id="Group_1-87" data-name="Group 1" transform="translate(600 388)">
        <path id="Path_1-87" data-name="Path 1" d="M23.989,21.181l.191,14.525,38.735-.5.6,41.306L79.5,76.3,78.7,20.47Z" fill="#154c7a"/>
        <path id="Path_2-87" data-name="Path 2" d="M15.979,0,0,.04.2,58.063l54.716-.131-.036-14.526L16.143,43.5Z" fill="#1c75bc"/>
      </g>
      <g id="Group_1-88" data-name="Group 1" transform="translate(700 388)">
        <path id="Path_1-88" data-name="Path 1" d="M23.989,21.181l.191,14.525,38.735-.5.6,41.306L79.5,76.3,78.7,20.47Z" fill="#154c7a"/>
        <path id="Path_2-88" data-name="Path 2" d="M15.979,0,0,.04.2,58.063l54.716-.131-.036-14.526L16.143,43.5Z" fill="#1c75bc"/>
      </g>
      <g id="Group_1-89" data-name="Group 1" transform="translate(800 388)">
        <path id="Path_1-89" data-name="Path 1" d="M23.989,21.181l.191,14.525,38.735-.5.6,41.306L79.5,76.3,78.7,20.47Z" fill="#154c7a"/>
        <path id="Path_2-89" data-name="Path 2" d="M15.979,0,0,.04.2,58.063l54.716-.131-.036-14.526L16.143,43.5Z" fill="#1c75bc"/>
      </g>
      <g id="Group_1-90" data-name="Group 1" transform="translate(900 388)">
        <path id="Path_1-90" data-name="Path 1" d="M23.989,21.181l.191,14.525,38.735-.5.6,41.306L79.5,76.3,78.7,20.47Z" fill="#154c7a"/>
        <path id="Path_2-90" data-name="Path 2" d="M15.979,0,0,.04.2,58.063l54.716-.131-.036-14.526L16.143,43.5Z" fill="#1c75bc"/>
      </g>
      <g id="Group_1-91" data-name="Group 1" transform="translate(1000 388)">
        <path id="Path_1-91" data-name="Path 1" d="M23.989,21.181l.191,14.525,38.735-.5.6,41.306L79.5,76.3,78.7,20.47Z" fill="#154c7a"/>
        <path id="Path_2-91" data-name="Path 2" d="M15.979,0,0,.04.2,58.063l54.716-.131-.036-14.526L16.143,43.5Z" fill="#1c75bc"/>
      </g>
      <g id="Group_1-92" data-name="Group 1" transform="translate(1100 388)">
        <path id="Path_1-92" data-name="Path 1" d="M23.989,21.181l.191,14.525,38.735-.5.6,41.306L79.5,76.3,78.7,20.47Z" fill="#154c7a"/>
        <path id="Path_2-92" data-name="Path 2" d="M15.979,0,0,.04.2,58.063l54.716-.131-.036-14.526L16.143,43.5Z" fill="#1c75bc"/>
      </g>
      <g id="Group_1-93" data-name="Group 1" transform="translate(1200 388)">
        <path id="Path_1-93" data-name="Path 1" d="M23.989,21.181l.191,14.525,38.735-.5.6,41.306L79.5,76.3,78.7,20.47Z" fill="#154c7a"/>
        <path id="Path_2-93" data-name="Path 2" d="M15.979,0,0,.04.2,58.063l54.716-.131-.036-14.526L16.143,43.5Z" fill="#1c75bc"/>
      </g>
      <g id="Group_1-94" data-name="Group 1" transform="translate(1300 388)">
        <path id="Path_1-94" data-name="Path 1" d="M23.989,21.181l.191,14.525,38.735-.5.6,41.306L79.5,76.3,78.7,20.47Z" fill="#154c7a"/>
        <path id="Path_2-94" data-name="Path 2" d="M15.979,0,0,.04.2,58.063l54.716-.131-.036-14.526L16.143,43.5Z" fill="#1c75bc"/>
      </g>
      <g id="Group_1-95" data-name="Group 1" transform="translate(1400 388)">
        <path id="Path_1-95" data-name="Path 1" d="M23.989,21.181l.191,14.525,38.735-.5.6,41.306L79.5,76.3,78.7,20.47Z" fill="#154c7a"/>
        <path id="Path_2-95" data-name="Path 2" d="M15.979,0,0,.04.2,58.063l54.716-.131-.036-14.526L16.143,43.5Z" fill="#1c75bc"/>
      </g>
      <g id="Group_1-96" data-name="Group 1" transform="translate(1500 388)">
        <path id="Path_1-96" data-name="Path 1" d="M23.989,21.181l.191,14.525,38.735-.5.6,41.306L79.5,76.3,78.7,20.47Z" fill="#154c7a"/>
        <path id="Path_2-96" data-name="Path 2" d="M15.979,0,0,.04.2,58.063l54.716-.131-.036-14.526L16.143,43.5Z" fill="#1c75bc"/>
      </g>
      <g id="Group_1-97" data-name="Group 1" transform="translate(1600 388)">
        <path id="Path_1-97" data-name="Path 1" d="M23.989,21.181l.191,14.525,38.735-.5.6,41.306L79.5,76.3,78.7,20.47Z" fill="#154c7a"/>
        <path id="Path_2-97" data-name="Path 2" d="M15.979,0,0,.04.2,58.063l54.716-.131-.036-14.526L16.143,43.5Z" fill="#1c75bc"/>
      </g>
      <g id="Group_1-98" data-name="Group 1" transform="translate(1700 388)">
        <path id="Path_1-98" data-name="Path 1" d="M23.989,21.181l.191,14.525,38.735-.5.6,41.306L79.5,76.3,78.7,20.47Z" fill="#154c7a"/>
        <path id="Path_2-98" data-name="Path 2" d="M15.979,0,0,.04.2,58.063l54.716-.131-.036-14.526L16.143,43.5Z" fill="#1c75bc"/>
      </g>
      <g id="Group_1-99" data-name="Group 1" transform="translate(1800 388)">
        <path id="Path_1-99" data-name="Path 1" d="M23.989,21.181l.191,14.525,38.735-.5.6,41.306L79.5,76.3,78.7,20.47Z" fill="#154c7a"/>
        <path id="Path_2-99" data-name="Path 2" d="M15.979,0,0,.04.2,58.063l54.716-.131-.036-14.526L16.143,43.5Z" fill="#1c75bc"/>
      </g>
      <g id="Group_1-100" data-name="Group 1" transform="translate(1900 388)">
        <path id="Path_1-100" data-name="Path 1" d="M23.989,21.181l.191,14.525,38.735-.5.6,41.306L79.5,76.3,78.7,20.47Z" fill="#154c7a"/>
        <path id="Path_2-100" data-name="Path 2" d="M15.979,0,0,.04.2,58.063l54.716-.131-.036-14.526L16.143,43.5Z" fill="#1c75bc"/>
      </g>
      <g id="Group_1-101" data-name="Group 1" transform="translate(0 485)">
        <path id="Path_1-101" data-name="Path 1" d="M23.989,21.181l.191,14.525,38.735-.5.6,41.306L79.5,76.3,78.7,20.47Z" fill="#154c7a"/>
        <path id="Path_2-101" data-name="Path 2" d="M15.979,0,0,.04.2,58.063l54.716-.131-.036-14.526L16.143,43.5Z" fill="#1c75bc"/>
      </g>
      <g id="Group_1-102" data-name="Group 1" transform="translate(100 485)">
        <path id="Path_1-102" data-name="Path 1" d="M23.989,21.181l.191,14.525,38.735-.5.6,41.306L79.5,76.3,78.7,20.47Z" fill="#154c7a"/>
        <path id="Path_2-102" data-name="Path 2" d="M15.979,0,0,.04.2,58.063l54.716-.131-.036-14.526L16.143,43.5Z" fill="#1c75bc"/>
      </g>
      <g id="Group_1-103" data-name="Group 1" transform="translate(200 485)">
        <path id="Path_1-103" data-name="Path 1" d="M23.989,21.181l.191,14.525,38.735-.5.6,41.306L79.5,76.3,78.7,20.47Z" fill="#154c7a"/>
        <path id="Path_2-103" data-name="Path 2" d="M15.979,0,0,.04.2,58.063l54.716-.131-.036-14.526L16.143,43.5Z" fill="#1c75bc"/>
      </g>
      <g id="Group_1-104" data-name="Group 1" transform="translate(300 485)">
        <path id="Path_1-104" data-name="Path 1" d="M23.989,21.181l.191,14.525,38.735-.5.6,41.306L79.5,76.3,78.7,20.47Z" fill="#154c7a"/>
        <path id="Path_2-104" data-name="Path 2" d="M15.979,0,0,.04.2,58.063l54.716-.131-.036-14.526L16.143,43.5Z" fill="#1c75bc"/>
      </g>
      <g id="Group_1-105" data-name="Group 1" transform="translate(400 485)">
        <path id="Path_1-105" data-name="Path 1" d="M23.989,21.181l.191,14.525,38.735-.5.6,41.306L79.5,76.3,78.7,20.47Z" fill="#154c7a"/>
        <path id="Path_2-105" data-name="Path 2" d="M15.979,0,0,.04.2,58.063l54.716-.131-.036-14.526L16.143,43.5Z" fill="#1c75bc"/>
      </g>
      <g id="Group_1-106" data-name="Group 1" transform="translate(500 485)">
        <path id="Path_1-106" data-name="Path 1" d="M23.989,21.181l.191,14.525,38.735-.5.6,41.306L79.5,76.3,78.7,20.47Z" fill="#154c7a"/>
        <path id="Path_2-106" data-name="Path 2" d="M15.979,0,0,.04.2,58.063l54.716-.131-.036-14.526L16.143,43.5Z" fill="#1c75bc"/>
      </g>
      <g id="Group_1-107" data-name="Group 1" transform="translate(600 485)">
        <path id="Path_1-107" data-name="Path 1" d="M23.989,21.181l.191,14.525,38.735-.5.6,41.306L79.5,76.3,78.7,20.47Z" fill="#154c7a"/>
        <path id="Path_2-107" data-name="Path 2" d="M15.979,0,0,.04.2,58.063l54.716-.131-.036-14.526L16.143,43.5Z" fill="#1c75bc"/>
      </g>
      <g id="Group_1-108" data-name="Group 1" transform="translate(700 485)">
        <path id="Path_1-108" data-name="Path 1" d="M23.989,21.181l.191,14.525,38.735-.5.6,41.306L79.5,76.3,78.7,20.47Z" fill="#154c7a"/>
        <path id="Path_2-108" data-name="Path 2" d="M15.979,0,0,.04.2,58.063l54.716-.131-.036-14.526L16.143,43.5Z" fill="#1c75bc"/>
      </g>
      <g id="Group_1-109" data-name="Group 1" transform="translate(800 485)">
        <path id="Path_1-109" data-name="Path 1" d="M23.989,21.181l.191,14.525,38.735-.5.6,41.306L79.5,76.3,78.7,20.47Z" fill="#154c7a"/>
        <path id="Path_2-109" data-name="Path 2" d="M15.979,0,0,.04.2,58.063l54.716-.131-.036-14.526L16.143,43.5Z" fill="#1c75bc"/>
      </g>
      <g id="Group_1-110" data-name="Group 1" transform="translate(900 485)">
        <path id="Path_1-110" data-name="Path 1" d="M23.989,21.181l.191,14.525,38.735-.5.6,41.306L79.5,76.3,78.7,20.47Z" fill="#154c7a"/>
        <path id="Path_2-110" data-name="Path 2" d="M15.979,0,0,.04.2,58.063l54.716-.131-.036-14.526L16.143,43.5Z" fill="#1c75bc"/>
      </g>
      <g id="Group_1-111" data-name="Group 1" transform="translate(1000 485)">
        <path id="Path_1-111" data-name="Path 1" d="M23.989,21.181l.191,14.525,38.735-.5.6,41.306L79.5,76.3,78.7,20.47Z" fill="#154c7a"/>
        <path id="Path_2-111" data-name="Path 2" d="M15.979,0,0,.04.2,58.063l54.716-.131-.036-14.526L16.143,43.5Z" fill="#1c75bc"/>
      </g>
      <g id="Group_1-112" data-name="Group 1" transform="translate(1100 485)">
        <path id="Path_1-112" data-name="Path 1" d="M23.989,21.181l.191,14.525,38.735-.5.6,41.306L79.5,76.3,78.7,20.47Z" fill="#154c7a"/>
        <path id="Path_2-112" data-name="Path 2" d="M15.979,0,0,.04.2,58.063l54.716-.131-.036-14.526L16.143,43.5Z" fill="#1c75bc"/>
      </g>
      <g id="Group_1-113" data-name="Group 1" transform="translate(1200 485)">
        <path id="Path_1-113" data-name="Path 1" d="M23.989,21.181l.191,14.525,38.735-.5.6,41.306L79.5,76.3,78.7,20.47Z" fill="#154c7a"/>
        <path id="Path_2-113" data-name="Path 2" d="M15.979,0,0,.04.2,58.063l54.716-.131-.036-14.526L16.143,43.5Z" fill="#1c75bc"/>
      </g>
      <g id="Group_1-114" data-name="Group 1" transform="translate(1300 485)">
        <path id="Path_1-114" data-name="Path 1" d="M23.989,21.181l.191,14.525,38.735-.5.6,41.306L79.5,76.3,78.7,20.47Z" fill="#154c7a"/>
        <path id="Path_2-114" data-name="Path 2" d="M15.979,0,0,.04.2,58.063l54.716-.131-.036-14.526L16.143,43.5Z" fill="#1c75bc"/>
      </g>
      <g id="Group_1-115" data-name="Group 1" transform="translate(1400 485)">
        <path id="Path_1-115" data-name="Path 1" d="M23.989,21.181l.191,14.525,38.735-.5.6,41.306L79.5,76.3,78.7,20.47Z" fill="#154c7a"/>
        <path id="Path_2-115" data-name="Path 2" d="M15.979,0,0,.04.2,58.063l54.716-.131-.036-14.526L16.143,43.5Z" fill="#1c75bc"/>
      </g>
      <g id="Group_1-116" data-name="Group 1" transform="translate(1500 485)">
        <path id="Path_1-116" data-name="Path 1" d="M23.989,21.181l.191,14.525,38.735-.5.6,41.306L79.5,76.3,78.7,20.47Z" fill="#154c7a"/>
        <path id="Path_2-116" data-name="Path 2" d="M15.979,0,0,.04.2,58.063l54.716-.131-.036-14.526L16.143,43.5Z" fill="#1c75bc"/>
      </g>
      <g id="Group_1-117" data-name="Group 1" transform="translate(1600 485)">
        <path id="Path_1-117" data-name="Path 1" d="M23.989,21.181l.191,14.525,38.735-.5.6,41.306L79.5,76.3,78.7,20.47Z" fill="#154c7a"/>
        <path id="Path_2-117" data-name="Path 2" d="M15.979,0,0,.04.2,58.063l54.716-.131-.036-14.526L16.143,43.5Z" fill="#1c75bc"/>
      </g>
      <g id="Group_1-118" data-name="Group 1" transform="translate(1700 485)">
        <path id="Path_1-118" data-name="Path 1" d="M23.989,21.181l.191,14.525,38.735-.5.6,41.306L79.5,76.3,78.7,20.47Z" fill="#154c7a"/>
        <path id="Path_2-118" data-name="Path 2" d="M15.979,0,0,.04.2,58.063l54.716-.131-.036-14.526L16.143,43.5Z" fill="#1c75bc"/>
      </g>
      <g id="Group_1-119" data-name="Group 1" transform="translate(1800 485)">
        <path id="Path_1-119" data-name="Path 1" d="M23.989,21.181l.191,14.525,38.735-.5.6,41.306L79.5,76.3,78.7,20.47Z" fill="#154c7a"/>
        <path id="Path_2-119" data-name="Path 2" d="M15.979,0,0,.04.2,58.063l54.716-.131-.036-14.526L16.143,43.5Z" fill="#1c75bc"/>
      </g>
      <g id="Group_1-120" data-name="Group 1" transform="translate(1900 485)">
        <path id="Path_1-120" data-name="Path 1" d="M23.989,21.181l.191,14.525,38.735-.5.6,41.306L79.5,76.3,78.7,20.47Z" fill="#154c7a"/>
        <path id="Path_2-120" data-name="Path 2" d="M15.979,0,0,.04.2,58.063l54.716-.131-.036-14.526L16.143,43.5Z" fill="#1c75bc"/>
      </g>
      <g id="Group_1-121" data-name="Group 1" transform="translate(0 582)">
        <path id="Path_1-121" data-name="Path 1" d="M23.989,21.181l.191,14.525,38.735-.5.6,41.306L79.5,76.3,78.7,20.47Z" fill="#154c7a"/>
        <path id="Path_2-121" data-name="Path 2" d="M15.979,0,0,.04.2,58.063l54.716-.131-.036-14.526L16.143,43.5Z" fill="#1c75bc"/>
      </g>
      <g id="Group_1-122" data-name="Group 1" transform="translate(100 582)">
        <path id="Path_1-122" data-name="Path 1" d="M23.989,21.181l.191,14.525,38.735-.5.6,41.306L79.5,76.3,78.7,20.47Z" fill="#154c7a"/>
        <path id="Path_2-122" data-name="Path 2" d="M15.979,0,0,.04.2,58.063l54.716-.131-.036-14.526L16.143,43.5Z" fill="#1c75bc"/>
      </g>
      <g id="Group_1-123" data-name="Group 1" transform="translate(200 582)">
        <path id="Path_1-123" data-name="Path 1" d="M23.989,21.181l.191,14.525,38.735-.5.6,41.306L79.5,76.3,78.7,20.47Z" fill="#154c7a"/>
        <path id="Path_2-123" data-name="Path 2" d="M15.979,0,0,.04.2,58.063l54.716-.131-.036-14.526L16.143,43.5Z" fill="#1c75bc"/>
      </g>
      <g id="Group_1-124" data-name="Group 1" transform="translate(300 582)">
        <path id="Path_1-124" data-name="Path 1" d="M23.989,21.181l.191,14.525,38.735-.5.6,41.306L79.5,76.3,78.7,20.47Z" fill="#154c7a"/>
        <path id="Path_2-124" data-name="Path 2" d="M15.979,0,0,.04.2,58.063l54.716-.131-.036-14.526L16.143,43.5Z" fill="#1c75bc"/>
      </g>
      <g id="Group_1-125" data-name="Group 1" transform="translate(400 582)">
        <path id="Path_1-125" data-name="Path 1" d="M23.989,21.181l.191,14.525,38.735-.5.6,41.306L79.5,76.3,78.7,20.47Z" fill="#154c7a"/>
        <path id="Path_2-125" data-name="Path 2" d="M15.979,0,0,.04.2,58.063l54.716-.131-.036-14.526L16.143,43.5Z" fill="#1c75bc"/>
      </g>
      <g id="Group_1-126" data-name="Group 1" transform="translate(500 582)">
        <path id="Path_1-126" data-name="Path 1" d="M23.989,21.181l.191,14.525,38.735-.5.6,41.306L79.5,76.3,78.7,20.47Z" fill="#154c7a"/>
        <path id="Path_2-126" data-name="Path 2" d="M15.979,0,0,.04.2,58.063l54.716-.131-.036-14.526L16.143,43.5Z" fill="#1c75bc"/>
      </g>
      <g id="Group_1-127" data-name="Group 1" transform="translate(600 582)">
        <path id="Path_1-127" data-name="Path 1" d="M23.989,21.181l.191,14.525,38.735-.5.6,41.306L79.5,76.3,78.7,20.47Z" fill="#154c7a"/>
        <path id="Path_2-127" data-name="Path 2" d="M15.979,0,0,.04.2,58.063l54.716-.131-.036-14.526L16.143,43.5Z" fill="#1c75bc"/>
      </g>
      <g id="Group_1-128" data-name="Group 1" transform="translate(700 582)">
        <path id="Path_1-128" data-name="Path 1" d="M23.989,21.181l.191,14.525,38.735-.5.6,41.306L79.5,76.3,78.7,20.47Z" fill="#154c7a"/>
        <path id="Path_2-128" data-name="Path 2" d="M15.979,0,0,.04.2,58.063l54.716-.131-.036-14.526L16.143,43.5Z" fill="#1c75bc"/>
      </g>
      <g id="Group_1-129" data-name="Group 1" transform="translate(800 582)">
        <path id="Path_1-129" data-name="Path 1" d="M23.989,21.181l.191,14.525,38.735-.5.6,41.306L79.5,76.3,78.7,20.47Z" fill="#154c7a"/>
        <path id="Path_2-129" data-name="Path 2" d="M15.979,0,0,.04.2,58.063l54.716-.131-.036-14.526L16.143,43.5Z" fill="#1c75bc"/>
      </g>
      <g id="Group_1-130" data-name="Group 1" transform="translate(900 582)">
        <path id="Path_1-130" data-name="Path 1" d="M23.989,21.181l.191,14.525,38.735-.5.6,41.306L79.5,76.3,78.7,20.47Z" fill="#154c7a"/>
        <path id="Path_2-130" data-name="Path 2" d="M15.979,0,0,.04.2,58.063l54.716-.131-.036-14.526L16.143,43.5Z" fill="#1c75bc"/>
      </g>
      <g id="Group_1-131" data-name="Group 1" transform="translate(1000 582)">
        <path id="Path_1-131" data-name="Path 1" d="M23.989,21.181l.191,14.525,38.735-.5.6,41.306L79.5,76.3,78.7,20.47Z" fill="#154c7a"/>
        <path id="Path_2-131" data-name="Path 2" d="M15.979,0,0,.04.2,58.063l54.716-.131-.036-14.526L16.143,43.5Z" fill="#1c75bc"/>
      </g>
      <g id="Group_1-132" data-name="Group 1" transform="translate(1100 582)">
        <path id="Path_1-132" data-name="Path 1" d="M23.989,21.181l.191,14.525,38.735-.5.6,41.306L79.5,76.3,78.7,20.47Z" fill="#154c7a"/>
        <path id="Path_2-132" data-name="Path 2" d="M15.979,0,0,.04.2,58.063l54.716-.131-.036-14.526L16.143,43.5Z" fill="#1c75bc"/>
      </g>
      <g id="Group_1-133" data-name="Group 1" transform="translate(1200 582)">
        <path id="Path_1-133" data-name="Path 1" d="M23.989,21.181l.191,14.525,38.735-.5.6,41.306L79.5,76.3,78.7,20.47Z" fill="#154c7a"/>
        <path id="Path_2-133" data-name="Path 2" d="M15.979,0,0,.04.2,58.063l54.716-.131-.036-14.526L16.143,43.5Z" fill="#1c75bc"/>
      </g>
      <g id="Group_1-134" data-name="Group 1" transform="translate(1300 582)">
        <path id="Path_1-134" data-name="Path 1" d="M23.989,21.181l.191,14.525,38.735-.5.6,41.306L79.5,76.3,78.7,20.47Z" fill="#154c7a"/>
        <path id="Path_2-134" data-name="Path 2" d="M15.979,0,0,.04.2,58.063l54.716-.131-.036-14.526L16.143,43.5Z" fill="#1c75bc"/>
      </g>
      <g id="Group_1-135" data-name="Group 1" transform="translate(1400 582)">
        <path id="Path_1-135" data-name="Path 1" d="M23.989,21.181l.191,14.525,38.735-.5.6,41.306L79.5,76.3,78.7,20.47Z" fill="#154c7a"/>
        <path id="Path_2-135" data-name="Path 2" d="M15.979,0,0,.04.2,58.063l54.716-.131-.036-14.526L16.143,43.5Z" fill="#1c75bc"/>
      </g>
      <g id="Group_1-136" data-name="Group 1" transform="translate(1500 582)">
        <path id="Path_1-136" data-name="Path 1" d="M23.989,21.181l.191,14.525,38.735-.5.6,41.306L79.5,76.3,78.7,20.47Z" fill="#154c7a"/>
        <path id="Path_2-136" data-name="Path 2" d="M15.979,0,0,.04.2,58.063l54.716-.131-.036-14.526L16.143,43.5Z" fill="#1c75bc"/>
      </g>
      <g id="Group_1-137" data-name="Group 1" transform="translate(1600 582)">
        <path id="Path_1-137" data-name="Path 1" d="M23.989,21.181l.191,14.525,38.735-.5.6,41.306L79.5,76.3,78.7,20.47Z" fill="#154c7a"/>
        <path id="Path_2-137" data-name="Path 2" d="M15.979,0,0,.04.2,58.063l54.716-.131-.036-14.526L16.143,43.5Z" fill="#1c75bc"/>
      </g>
      <g id="Group_1-138" data-name="Group 1" transform="translate(1700 582)">
        <path id="Path_1-138" data-name="Path 1" d="M23.989,21.181l.191,14.525,38.735-.5.6,41.306L79.5,76.3,78.7,20.47Z" fill="#154c7a"/>
        <path id="Path_2-138" data-name="Path 2" d="M15.979,0,0,.04.2,58.063l54.716-.131-.036-14.526L16.143,43.5Z" fill="#1c75bc"/>
      </g>
      <g id="Group_1-139" data-name="Group 1" transform="translate(1800 582)">
        <path id="Path_1-139" data-name="Path 1" d="M23.989,21.181l.191,14.525,38.735-.5.6,41.306L79.5,76.3,78.7,20.47Z" fill="#154c7a"/>
        <path id="Path_2-139" data-name="Path 2" d="M15.979,0,0,.04.2,58.063l54.716-.131-.036-14.526L16.143,43.5Z" fill="#1c75bc"/>
      </g>
      <g id="Group_1-140" data-name="Group 1" transform="translate(1900 582)">
        <path id="Path_1-140" data-name="Path 1" d="M23.989,21.181l.191,14.525,38.735-.5.6,41.306L79.5,76.3,78.7,20.47Z" fill="#154c7a"/>
        <path id="Path_2-140" data-name="Path 2" d="M15.979,0,0,.04.2,58.063l54.716-.131-.036-14.526L16.143,43.5Z" fill="#1c75bc"/>
      </g>
      <g id="Group_1-141" data-name="Group 1" transform="translate(0 679)">
        <path id="Path_1-141" data-name="Path 1" d="M23.989,21.181l.191,14.525,38.735-.5.6,41.306L79.5,76.3,78.7,20.47Z" fill="#154c7a"/>
        <path id="Path_2-141" data-name="Path 2" d="M15.979,0,0,.04.2,58.063l54.716-.131-.036-14.526L16.143,43.5Z" fill="#1c75bc"/>
      </g>
      <g id="Group_1-142" data-name="Group 1" transform="translate(100 679)">
        <path id="Path_1-142" data-name="Path 1" d="M23.989,21.181l.191,14.525,38.735-.5.6,41.306L79.5,76.3,78.7,20.47Z" fill="#154c7a"/>
        <path id="Path_2-142" data-name="Path 2" d="M15.979,0,0,.04.2,58.063l54.716-.131-.036-14.526L16.143,43.5Z" fill="#1c75bc"/>
      </g>
      <g id="Group_1-143" data-name="Group 1" transform="translate(200 679)">
        <path id="Path_1-143" data-name="Path 1" d="M23.989,21.181l.191,14.525,38.735-.5.6,41.306L79.5,76.3,78.7,20.47Z" fill="#154c7a"/>
        <path id="Path_2-143" data-name="Path 2" d="M15.979,0,0,.04.2,58.063l54.716-.131-.036-14.526L16.143,43.5Z" fill="#1c75bc"/>
      </g>
      <g id="Group_1-144" data-name="Group 1" transform="translate(300 679)">
        <path id="Path_1-144" data-name="Path 1" d="M23.989,21.181l.191,14.525,38.735-.5.6,41.306L79.5,76.3,78.7,20.47Z" fill="#154c7a"/>
        <path id="Path_2-144" data-name="Path 2" d="M15.979,0,0,.04.2,58.063l54.716-.131-.036-14.526L16.143,43.5Z" fill="#1c75bc"/>
      </g>
      <g id="Group_1-145" data-name="Group 1" transform="translate(400 679)">
        <path id="Path_1-145" data-name="Path 1" d="M23.989,21.181l.191,14.525,38.735-.5.6,41.306L79.5,76.3,78.7,20.47Z" fill="#154c7a"/>
        <path id="Path_2-145" data-name="Path 2" d="M15.979,0,0,.04.2,58.063l54.716-.131-.036-14.526L16.143,43.5Z" fill="#1c75bc"/>
      </g>
      <g id="Group_1-146" data-name="Group 1" transform="translate(500 679)">
        <path id="Path_1-146" data-name="Path 1" d="M23.989,21.181l.191,14.525,38.735-.5.6,41.306L79.5,76.3,78.7,20.47Z" fill="#154c7a"/>
        <path id="Path_2-146" data-name="Path 2" d="M15.979,0,0,.04.2,58.063l54.716-.131-.036-14.526L16.143,43.5Z" fill="#1c75bc"/>
      </g>
      <g id="Group_1-147" data-name="Group 1" transform="translate(600 679)">
        <path id="Path_1-147" data-name="Path 1" d="M23.989,21.181l.191,14.525,38.735-.5.6,41.306L79.5,76.3,78.7,20.47Z" fill="#154c7a"/>
        <path id="Path_2-147" data-name="Path 2" d="M15.979,0,0,.04.2,58.063l54.716-.131-.036-14.526L16.143,43.5Z" fill="#1c75bc"/>
      </g>
      <g id="Group_1-148" data-name="Group 1" transform="translate(700 679)">
        <path id="Path_1-148" data-name="Path 1" d="M23.989,21.181l.191,14.525,38.735-.5.6,41.306L79.5,76.3,78.7,20.47Z" fill="#154c7a"/>
        <path id="Path_2-148" data-name="Path 2" d="M15.979,0,0,.04.2,58.063l54.716-.131-.036-14.526L16.143,43.5Z" fill="#1c75bc"/>
      </g>
      <g id="Group_1-149" data-name="Group 1" transform="translate(800 679)">
        <path id="Path_1-149" data-name="Path 1" d="M23.989,21.181l.191,14.525,38.735-.5.6,41.306L79.5,76.3,78.7,20.47Z" fill="#154c7a"/>
        <path id="Path_2-149" data-name="Path 2" d="M15.979,0,0,.04.2,58.063l54.716-.131-.036-14.526L16.143,43.5Z" fill="#1c75bc"/>
      </g>
      <g id="Group_1-150" data-name="Group 1" transform="translate(900 679)">
        <path id="Path_1-150" data-name="Path 1" d="M23.989,21.181l.191,14.525,38.735-.5.6,41.306L79.5,76.3,78.7,20.47Z" fill="#154c7a"/>
        <path id="Path_2-150" data-name="Path 2" d="M15.979,0,0,.04.2,58.063l54.716-.131-.036-14.526L16.143,43.5Z" fill="#1c75bc"/>
      </g>
      <g id="Group_1-151" data-name="Group 1" transform="translate(1000 679)">
        <path id="Path_1-151" data-name="Path 1" d="M23.989,21.181l.191,14.525,38.735-.5.6,41.306L79.5,76.3,78.7,20.47Z" fill="#154c7a"/>
        <path id="Path_2-151" data-name="Path 2" d="M15.979,0,0,.04.2,58.063l54.716-.131-.036-14.526L16.143,43.5Z" fill="#1c75bc"/>
      </g>
      <g id="Group_1-152" data-name="Group 1" transform="translate(1100 679)">
        <path id="Path_1-152" data-name="Path 1" d="M23.989,21.181l.191,14.525,38.735-.5.6,41.306L79.5,76.3,78.7,20.47Z" fill="#154c7a"/>
        <path id="Path_2-152" data-name="Path 2" d="M15.979,0,0,.04.2,58.063l54.716-.131-.036-14.526L16.143,43.5Z" fill="#1c75bc"/>
      </g>
      <g id="Group_1-153" data-name="Group 1" transform="translate(1200 679)">
        <path id="Path_1-153" data-name="Path 1" d="M23.989,21.181l.191,14.525,38.735-.5.6,41.306L79.5,76.3,78.7,20.47Z" fill="#154c7a"/>
        <path id="Path_2-153" data-name="Path 2" d="M15.979,0,0,.04.2,58.063l54.716-.131-.036-14.526L16.143,43.5Z" fill="#1c75bc"/>
      </g>
      <g id="Group_1-154" data-name="Group 1" transform="translate(1300 679)">
        <path id="Path_1-154" data-name="Path 1" d="M23.989,21.181l.191,14.525,38.735-.5.6,41.306L79.5,76.3,78.7,20.47Z" fill="#154c7a"/>
        <path id="Path_2-154" data-name="Path 2" d="M15.979,0,0,.04.2,58.063l54.716-.131-.036-14.526L16.143,43.5Z" fill="#1c75bc"/>
      </g>
      <g id="Group_1-155" data-name="Group 1" transform="translate(1400 679)">
        <path id="Path_1-155" data-name="Path 1" d="M23.989,21.181l.191,14.525,38.735-.5.6,41.306L79.5,76.3,78.7,20.47Z" fill="#154c7a"/>
        <path id="Path_2-155" data-name="Path 2" d="M15.979,0,0,.04.2,58.063l54.716-.131-.036-14.526L16.143,43.5Z" fill="#1c75bc"/>
      </g>
      <g id="Group_1-156" data-name="Group 1" transform="translate(1500 679)">
        <path id="Path_1-156" data-name="Path 1" d="M23.989,21.181l.191,14.525,38.735-.5.6,41.306L79.5,76.3,78.7,20.47Z" fill="#154c7a"/>
        <path id="Path_2-156" data-name="Path 2" d="M15.979,0,0,.04.2,58.063l54.716-.131-.036-14.526L16.143,43.5Z" fill="#1c75bc"/>
      </g>
      <g id="Group_1-157" data-name="Group 1" transform="translate(1600 679)">
        <path id="Path_1-157" data-name="Path 1" d="M23.989,21.181l.191,14.525,38.735-.5.6,41.306L79.5,76.3,78.7,20.47Z" fill="#154c7a"/>
        <path id="Path_2-157" data-name="Path 2" d="M15.979,0,0,.04.2,58.063l54.716-.131-.036-14.526L16.143,43.5Z" fill="#1c75bc"/>
      </g>
      <g id="Group_1-158" data-name="Group 1" transform="translate(1700 679)">
        <path id="Path_1-158" data-name="Path 1" d="M23.989,21.181l.191,14.525,38.735-.5.6,41.306L79.5,76.3,78.7,20.47Z" fill="#154c7a"/>
        <path id="Path_2-158" data-name="Path 2" d="M15.979,0,0,.04.2,58.063l54.716-.131-.036-14.526L16.143,43.5Z" fill="#1c75bc"/>
      </g>
      <g id="Group_1-159" data-name="Group 1" transform="translate(1800 679)">
        <path id="Path_1-159" data-name="Path 1" d="M23.989,21.181l.191,14.525,38.735-.5.6,41.306L79.5,76.3,78.7,20.47Z" fill="#154c7a"/>
        <path id="Path_2-159" data-name="Path 2" d="M15.979,0,0,.04.2,58.063l54.716-.131-.036-14.526L16.143,43.5Z" fill="#1c75bc"/>
      </g>
      <g id="Group_1-160" data-name="Group 1" transform="translate(1900 679)">
        <path id="Path_1-160" data-name="Path 1" d="M23.989,21.181l.191,14.525,38.735-.5.6,41.306L79.5,76.3,78.7,20.47Z" fill="#154c7a"/>
        <path id="Path_2-160" data-name="Path 2" d="M15.979,0,0,.04.2,58.063l54.716-.131-.036-14.526L16.143,43.5Z" fill="#1c75bc"/>
      </g>
      <g id="Group_1-161" data-name="Group 1" transform="translate(0 776)">
        <path id="Path_1-161" data-name="Path 1" d="M23.989,21.181l.191,14.525,38.735-.5.6,41.306L79.5,76.3,78.7,20.47Z" fill="#154c7a"/>
        <path id="Path_2-161" data-name="Path 2" d="M15.979,0,0,.04.2,58.063l54.716-.131-.036-14.526L16.143,43.5Z" fill="#1c75bc"/>
      </g>
      <g id="Group_1-162" data-name="Group 1" transform="translate(100 776)">
        <path id="Path_1-162" data-name="Path 1" d="M23.989,21.181l.191,14.525,38.735-.5.6,41.306L79.5,76.3,78.7,20.47Z" fill="#154c7a"/>
        <path id="Path_2-162" data-name="Path 2" d="M15.979,0,0,.04.2,58.063l54.716-.131-.036-14.526L16.143,43.5Z" fill="#1c75bc"/>
      </g>
      <g id="Group_1-163" data-name="Group 1" transform="translate(200 776)">
        <path id="Path_1-163" data-name="Path 1" d="M23.989,21.181l.191,14.525,38.735-.5.6,41.306L79.5,76.3,78.7,20.47Z" fill="#154c7a"/>
        <path id="Path_2-163" data-name="Path 2" d="M15.979,0,0,.04.2,58.063l54.716-.131-.036-14.526L16.143,43.5Z" fill="#1c75bc"/>
      </g>
      <g id="Group_1-164" data-name="Group 1" transform="translate(300 776)">
        <path id="Path_1-164" data-name="Path 1" d="M23.989,21.181l.191,14.525,38.735-.5.6,41.306L79.5,76.3,78.7,20.47Z" fill="#154c7a"/>
        <path id="Path_2-164" data-name="Path 2" d="M15.979,0,0,.04.2,58.063l54.716-.131-.036-14.526L16.143,43.5Z" fill="#1c75bc"/>
      </g>
      <g id="Group_1-165" data-name="Group 1" transform="translate(400 776)">
        <path id="Path_1-165" data-name="Path 1" d="M23.989,21.181l.191,14.525,38.735-.5.6,41.306L79.5,76.3,78.7,20.47Z" fill="#154c7a"/>
        <path id="Path_2-165" data-name="Path 2" d="M15.979,0,0,.04.2,58.063l54.716-.131-.036-14.526L16.143,43.5Z" fill="#1c75bc"/>
      </g>
      <g id="Group_1-166" data-name="Group 1" transform="translate(500 776)">
        <path id="Path_1-166" data-name="Path 1" d="M23.989,21.181l.191,14.525,38.735-.5.6,41.306L79.5,76.3,78.7,20.47Z" fill="#154c7a"/>
        <path id="Path_2-166" data-name="Path 2" d="M15.979,0,0,.04.2,58.063l54.716-.131-.036-14.526L16.143,43.5Z" fill="#1c75bc"/>
      </g>
      <g id="Group_1-167" data-name="Group 1" transform="translate(600 776)">
        <path id="Path_1-167" data-name="Path 1" d="M23.989,21.181l.191,14.525,38.735-.5.6,41.306L79.5,76.3,78.7,20.47Z" fill="#154c7a"/>
        <path id="Path_2-167" data-name="Path 2" d="M15.979,0,0,.04.2,58.063l54.716-.131-.036-14.526L16.143,43.5Z" fill="#1c75bc"/>
      </g>
      <g id="Group_1-168" data-name="Group 1" transform="translate(700 776)">
        <path id="Path_1-168" data-name="Path 1" d="M23.989,21.181l.191,14.525,38.735-.5.6,41.306L79.5,76.3,78.7,20.47Z" fill="#154c7a"/>
        <path id="Path_2-168" data-name="Path 2" d="M15.979,0,0,.04.2,58.063l54.716-.131-.036-14.526L16.143,43.5Z" fill="#1c75bc"/>
      </g>
      <g id="Group_1-169" data-name="Group 1" transform="translate(800 776)">
        <path id="Path_1-169" data-name="Path 1" d="M23.989,21.181l.191,14.525,38.735-.5.6,41.306L79.5,76.3,78.7,20.47Z" fill="#154c7a"/>
        <path id="Path_2-169" data-name="Path 2" d="M15.979,0,0,.04.2,58.063l54.716-.131-.036-14.526L16.143,43.5Z" fill="#1c75bc"/>
      </g>
      <g id="Group_1-170" data-name="Group 1" transform="translate(900 776)">
        <path id="Path_1-170" data-name="Path 1" d="M23.989,21.181l.191,14.525,38.735-.5.6,41.306L79.5,76.3,78.7,20.47Z" fill="#154c7a"/>
        <path id="Path_2-170" data-name="Path 2" d="M15.979,0,0,.04.2,58.063l54.716-.131-.036-14.526L16.143,43.5Z" fill="#1c75bc"/>
      </g>
      <g id="Group_1-171" data-name="Group 1" transform="translate(1000 776)">
        <path id="Path_1-171" data-name="Path 1" d="M23.989,21.181l.191,14.525,38.735-.5.6,41.306L79.5,76.3,78.7,20.47Z" fill="#154c7a"/>
        <path id="Path_2-171" data-name="Path 2" d="M15.979,0,0,.04.2,58.063l54.716-.131-.036-14.526L16.143,43.5Z" fill="#1c75bc"/>
      </g>
      <g id="Group_1-172" data-name="Group 1" transform="translate(1100 776)">
        <path id="Path_1-172" data-name="Path 1" d="M23.989,21.181l.191,14.525,38.735-.5.6,41.306L79.5,76.3,78.7,20.47Z" fill="#154c7a"/>
        <path id="Path_2-172" data-name="Path 2" d="M15.979,0,0,.04.2,58.063l54.716-.131-.036-14.526L16.143,43.5Z" fill="#1c75bc"/>
      </g>
      <g id="Group_1-173" data-name="Group 1" transform="translate(1200 776)">
        <path id="Path_1-173" data-name="Path 1" d="M23.989,21.181l.191,14.525,38.735-.5.6,41.306L79.5,76.3,78.7,20.47Z" fill="#154c7a"/>
        <path id="Path_2-173" data-name="Path 2" d="M15.979,0,0,.04.2,58.063l54.716-.131-.036-14.526L16.143,43.5Z" fill="#1c75bc"/>
      </g>
      <g id="Group_1-174" data-name="Group 1" transform="translate(1300 776)">
        <path id="Path_1-174" data-name="Path 1" d="M23.989,21.181l.191,14.525,38.735-.5.6,41.306L79.5,76.3,78.7,20.47Z" fill="#154c7a"/>
        <path id="Path_2-174" data-name="Path 2" d="M15.979,0,0,.04.2,58.063l54.716-.131-.036-14.526L16.143,43.5Z" fill="#1c75bc"/>
      </g>
      <g id="Group_1-175" data-name="Group 1" transform="translate(1400 776)">
        <path id="Path_1-175" data-name="Path 1" d="M23.989,21.181l.191,14.525,38.735-.5.6,41.306L79.5,76.3,78.7,20.47Z" fill="#154c7a"/>
        <path id="Path_2-175" data-name="Path 2" d="M15.979,0,0,.04.2,58.063l54.716-.131-.036-14.526L16.143,43.5Z" fill="#1c75bc"/>
      </g>
      <g id="Group_1-176" data-name="Group 1" transform="translate(1500 776)">
        <path id="Path_1-176" data-name="Path 1" d="M23.989,21.181l.191,14.525,38.735-.5.6,41.306L79.5,76.3,78.7,20.47Z" fill="#154c7a"/>
        <path id="Path_2-176" data-name="Path 2" d="M15.979,0,0,.04.2,58.063l54.716-.131-.036-14.526L16.143,43.5Z" fill="#1c75bc"/>
      </g>
      <g id="Group_1-177" data-name="Group 1" transform="translate(1600 776)">
        <path id="Path_1-177" data-name="Path 1" d="M23.989,21.181l.191,14.525,38.735-.5.6,41.306L79.5,76.3,78.7,20.47Z" fill="#154c7a"/>
        <path id="Path_2-177" data-name="Path 2" d="M15.979,0,0,.04.2,58.063l54.716-.131-.036-14.526L16.143,43.5Z" fill="#1c75bc"/>
      </g>
      <g id="Group_1-178" data-name="Group 1" transform="translate(1700 776)">
        <path id="Path_1-178" data-name="Path 1" d="M23.989,21.181l.191,14.525,38.735-.5.6,41.306L79.5,76.3,78.7,20.47Z" fill="#154c7a"/>
        <path id="Path_2-178" data-name="Path 2" d="M15.979,0,0,.04.2,58.063l54.716-.131-.036-14.526L16.143,43.5Z" fill="#1c75bc"/>
      </g>
      <g id="Group_1-179" data-name="Group 1" transform="translate(1800 776)">
        <path id="Path_1-179" data-name="Path 1" d="M23.989,21.181l.191,14.525,38.735-.5.6,41.306L79.5,76.3,78.7,20.47Z" fill="#154c7a"/>
        <path id="Path_2-179" data-name="Path 2" d="M15.979,0,0,.04.2,58.063l54.716-.131-.036-14.526L16.143,43.5Z" fill="#1c75bc"/>
      </g>
      <g id="Group_1-180" data-name="Group 1" transform="translate(1900 776)">
        <path id="Path_1-180" data-name="Path 1" d="M23.989,21.181l.191,14.525,38.735-.5.6,41.306L79.5,76.3,78.7,20.47Z" fill="#154c7a"/>
        <path id="Path_2-180" data-name="Path 2" d="M15.979,0,0,.04.2,58.063l54.716-.131-.036-14.526L16.143,43.5Z" fill="#1c75bc"/>
      </g>
      <g id="Group_1-181" data-name="Group 1" transform="translate(0 873)">
        <path id="Path_1-181" data-name="Path 1" d="M23.989,21.181l.191,14.525,38.735-.5.6,41.306L79.5,76.3,78.7,20.47Z" fill="#154c7a"/>
        <path id="Path_2-181" data-name="Path 2" d="M15.979,0,0,.04.2,58.063l54.716-.131-.036-14.526L16.143,43.5Z" fill="#1c75bc"/>
      </g>
      <g id="Group_1-182" data-name="Group 1" transform="translate(100 873)">
        <path id="Path_1-182" data-name="Path 1" d="M23.989,21.181l.191,14.525,38.735-.5.6,41.306L79.5,76.3,78.7,20.47Z" fill="#154c7a"/>
        <path id="Path_2-182" data-name="Path 2" d="M15.979,0,0,.04.2,58.063l54.716-.131-.036-14.526L16.143,43.5Z" fill="#1c75bc"/>
      </g>
      <g id="Group_1-183" data-name="Group 1" transform="translate(200 873)">
        <path id="Path_1-183" data-name="Path 1" d="M23.989,21.181l.191,14.525,38.735-.5.6,41.306L79.5,76.3,78.7,20.47Z" fill="#154c7a"/>
        <path id="Path_2-183" data-name="Path 2" d="M15.979,0,0,.04.2,58.063l54.716-.131-.036-14.526L16.143,43.5Z" fill="#1c75bc"/>
      </g>
      <g id="Group_1-184" data-name="Group 1" transform="translate(300 873)">
        <path id="Path_1-184" data-name="Path 1" d="M23.989,21.181l.191,14.525,38.735-.5.6,41.306L79.5,76.3,78.7,20.47Z" fill="#154c7a"/>
        <path id="Path_2-184" data-name="Path 2" d="M15.979,0,0,.04.2,58.063l54.716-.131-.036-14.526L16.143,43.5Z" fill="#1c75bc"/>
      </g>
      <g id="Group_1-185" data-name="Group 1" transform="translate(400 873)">
        <path id="Path_1-185" data-name="Path 1" d="M23.989,21.181l.191,14.525,38.735-.5.6,41.306L79.5,76.3,78.7,20.47Z" fill="#154c7a"/>
        <path id="Path_2-185" data-name="Path 2" d="M15.979,0,0,.04.2,58.063l54.716-.131-.036-14.526L16.143,43.5Z" fill="#1c75bc"/>
      </g>
      <g id="Group_1-186" data-name="Group 1" transform="translate(500 873)">
        <path id="Path_1-186" data-name="Path 1" d="M23.989,21.181l.191,14.525,38.735-.5.6,41.306L79.5,76.3,78.7,20.47Z" fill="#154c7a"/>
        <path id="Path_2-186" data-name="Path 2" d="M15.979,0,0,.04.2,58.063l54.716-.131-.036-14.526L16.143,43.5Z" fill="#1c75bc"/>
      </g>
      <g id="Group_1-187" data-name="Group 1" transform="translate(600 873)">
        <path id="Path_1-187" data-name="Path 1" d="M23.989,21.181l.191,14.525,38.735-.5.6,41.306L79.5,76.3,78.7,20.47Z" fill="#154c7a"/>
        <path id="Path_2-187" data-name="Path 2" d="M15.979,0,0,.04.2,58.063l54.716-.131-.036-14.526L16.143,43.5Z" fill="#1c75bc"/>
      </g>
      <g id="Group_1-188" data-name="Group 1" transform="translate(700 873)">
        <path id="Path_1-188" data-name="Path 1" d="M23.989,21.181l.191,14.525,38.735-.5.6,41.306L79.5,76.3,78.7,20.47Z" fill="#154c7a"/>
        <path id="Path_2-188" data-name="Path 2" d="M15.979,0,0,.04.2,58.063l54.716-.131-.036-14.526L16.143,43.5Z" fill="#1c75bc"/>
      </g>
      <g id="Group_1-189" data-name="Group 1" transform="translate(800 873)">
        <path id="Path_1-189" data-name="Path 1" d="M23.989,21.181l.191,14.525,38.735-.5.6,41.306L79.5,76.3,78.7,20.47Z" fill="#154c7a"/>
        <path id="Path_2-189" data-name="Path 2" d="M15.979,0,0,.04.2,58.063l54.716-.131-.036-14.526L16.143,43.5Z" fill="#1c75bc"/>
      </g>
      <g id="Group_1-190" data-name="Group 1" transform="translate(900 873)">
        <path id="Path_1-190" data-name="Path 1" d="M23.989,21.181l.191,14.525,38.735-.5.6,41.306L79.5,76.3,78.7,20.47Z" fill="#154c7a"/>
        <path id="Path_2-190" data-name="Path 2" d="M15.979,0,0,.04.2,58.063l54.716-.131-.036-14.526L16.143,43.5Z" fill="#1c75bc"/>
      </g>
      <g id="Group_1-191" data-name="Group 1" transform="translate(1000 873)">
        <path id="Path_1-191" data-name="Path 1" d="M23.989,21.181l.191,14.525,38.735-.5.6,41.306L79.5,76.3,78.7,20.47Z" fill="#154c7a"/>
        <path id="Path_2-191" data-name="Path 2" d="M15.979,0,0,.04.2,58.063l54.716-.131-.036-14.526L16.143,43.5Z" fill="#1c75bc"/>
      </g>
      <g id="Group_1-192" data-name="Group 1" transform="translate(1100 873)">
        <path id="Path_1-192" data-name="Path 1" d="M23.989,21.181l.191,14.525,38.735-.5.6,41.306L79.5,76.3,78.7,20.47Z" fill="#154c7a"/>
        <path id="Path_2-192" data-name="Path 2" d="M15.979,0,0,.04.2,58.063l54.716-.131-.036-14.526L16.143,43.5Z" fill="#1c75bc"/>
      </g>
      <g id="Group_1-193" data-name="Group 1" transform="translate(1200 873)">
        <path id="Path_1-193" data-name="Path 1" d="M23.989,21.181l.191,14.525,38.735-.5.6,41.306L79.5,76.3,78.7,20.47Z" fill="#154c7a"/>
        <path id="Path_2-193" data-name="Path 2" d="M15.979,0,0,.04.2,58.063l54.716-.131-.036-14.526L16.143,43.5Z" fill="#1c75bc"/>
      </g>
      <g id="Group_1-194" data-name="Group 1" transform="translate(1300 873)">
        <path id="Path_1-194" data-name="Path 1" d="M23.989,21.181l.191,14.525,38.735-.5.6,41.306L79.5,76.3,78.7,20.47Z" fill="#154c7a"/>
        <path id="Path_2-194" data-name="Path 2" d="M15.979,0,0,.04.2,58.063l54.716-.131-.036-14.526L16.143,43.5Z" fill="#1c75bc"/>
      </g>
      <g id="Group_1-195" data-name="Group 1" transform="translate(1400 873)">
        <path id="Path_1-195" data-name="Path 1" d="M23.989,21.181l.191,14.525,38.735-.5.6,41.306L79.5,76.3,78.7,20.47Z" fill="#154c7a"/>
        <path id="Path_2-195" data-name="Path 2" d="M15.979,0,0,.04.2,58.063l54.716-.131-.036-14.526L16.143,43.5Z" fill="#1c75bc"/>
      </g>
      <g id="Group_1-196" data-name="Group 1" transform="translate(1500 873)">
        <path id="Path_1-196" data-name="Path 1" d="M23.989,21.181l.191,14.525,38.735-.5.6,41.306L79.5,76.3,78.7,20.47Z" fill="#154c7a"/>
        <path id="Path_2-196" data-name="Path 2" d="M15.979,0,0,.04.2,58.063l54.716-.131-.036-14.526L16.143,43.5Z" fill="#1c75bc"/>
      </g>
      <g id="Group_1-197" data-name="Group 1" transform="translate(1600 873)">
        <path id="Path_1-197" data-name="Path 1" d="M23.989,21.181l.191,14.525,38.735-.5.6,41.306L79.5,76.3,78.7,20.47Z" fill="#154c7a"/>
        <path id="Path_2-197" data-name="Path 2" d="M15.979,0,0,.04.2,58.063l54.716-.131-.036-14.526L16.143,43.5Z" fill="#1c75bc"/>
      </g>
      <g id="Group_1-198" data-name="Group 1" transform="translate(1700 873)">
        <path id="Path_1-198" data-name="Path 1" d="M23.989,21.181l.191,14.525,38.735-.5.6,41.306L79.5,76.3,78.7,20.47Z" fill="#154c7a"/>
        <path id="Path_2-198" data-name="Path 2" d="M15.979,0,0,.04.2,58.063l54.716-.131-.036-14.526L16.143,43.5Z" fill="#1c75bc"/>
      </g>
      <g id="Group_1-199" data-name="Group 1" transform="translate(1800 873)">
        <path id="Path_1-199" data-name="Path 1" d="M23.989,21.181l.191,14.525,38.735-.5.6,41.306L79.5,76.3,78.7,20.47Z" fill="#154c7a"/>
        <path id="Path_2-199" data-name="Path 2" d="M15.979,0,0,.04.2,58.063l54.716-.131-.036-14.526L16.143,43.5Z" fill="#1c75bc"/>
      </g>
      <g id="Group_1-200" data-name="Group 1" transform="translate(1900 873)">
        <path id="Path_1-200" data-name="Path 1" d="M23.989,21.181l.191,14.525,38.735-.5.6,41.306L79.5,76.3,78.7,20.47Z" fill="#154c7a"/>
        <path id="Path_2-200" data-name="Path 2" d="M15.979,0,0,.04.2,58.063l54.716-.131-.036-14.526L16.143,43.5Z" fill="#1c75bc"/>
      </g>
      <g id="Group_1-201" data-name="Group 1" transform="translate(0 970)">
        <path id="Path_1-201" data-name="Path 1" d="M23.989,21.181l.191,14.525,38.735-.5.6,41.306L79.5,76.3,78.7,20.47Z" fill="#154c7a"/>
        <path id="Path_2-201" data-name="Path 2" d="M15.979,0,0,.04.2,58.063l54.716-.131-.036-14.526L16.143,43.5Z" fill="#1c75bc"/>
      </g>
      <g id="Group_1-202" data-name="Group 1" transform="translate(100 970)">
        <path id="Path_1-202" data-name="Path 1" d="M23.989,21.181l.191,14.525,38.735-.5.6,41.306L79.5,76.3,78.7,20.47Z" fill="#154c7a"/>
        <path id="Path_2-202" data-name="Path 2" d="M15.979,0,0,.04.2,58.063l54.716-.131-.036-14.526L16.143,43.5Z" fill="#1c75bc"/>
      </g>
      <g id="Group_1-203" data-name="Group 1" transform="translate(200 970)">
        <path id="Path_1-203" data-name="Path 1" d="M23.989,21.181l.191,14.525,38.735-.5.6,41.306L79.5,76.3,78.7,20.47Z" fill="#154c7a"/>
        <path id="Path_2-203" data-name="Path 2" d="M15.979,0,0,.04.2,58.063l54.716-.131-.036-14.526L16.143,43.5Z" fill="#1c75bc"/>
      </g>
      <g id="Group_1-204" data-name="Group 1" transform="translate(300 970)">
        <path id="Path_1-204" data-name="Path 1" d="M23.989,21.181l.191,14.525,38.735-.5.6,41.306L79.5,76.3,78.7,20.47Z" fill="#154c7a"/>
        <path id="Path_2-204" data-name="Path 2" d="M15.979,0,0,.04.2,58.063l54.716-.131-.036-14.526L16.143,43.5Z" fill="#1c75bc"/>
      </g>
      <g id="Group_1-205" data-name="Group 1" transform="translate(400 970)">
        <path id="Path_1-205" data-name="Path 1" d="M23.989,21.181l.191,14.525,38.735-.5.6,41.306L79.5,76.3,78.7,20.47Z" fill="#154c7a"/>
        <path id="Path_2-205" data-name="Path 2" d="M15.979,0,0,.04.2,58.063l54.716-.131-.036-14.526L16.143,43.5Z" fill="#1c75bc"/>
      </g>
      <g id="Group_1-206" data-name="Group 1" transform="translate(500 970)">
        <path id="Path_1-206" data-name="Path 1" d="M23.989,21.181l.191,14.525,38.735-.5.6,41.306L79.5,76.3,78.7,20.47Z" fill="#154c7a"/>
        <path id="Path_2-206" data-name="Path 2" d="M15.979,0,0,.04.2,58.063l54.716-.131-.036-14.526L16.143,43.5Z" fill="#1c75bc"/>
      </g>
      <g id="Group_1-207" data-name="Group 1" transform="translate(600 970)">
        <path id="Path_1-207" data-name="Path 1" d="M23.989,21.181l.191,14.525,38.735-.5.6,41.306L79.5,76.3,78.7,20.47Z" fill="#154c7a"/>
        <path id="Path_2-207" data-name="Path 2" d="M15.979,0,0,.04.2,58.063l54.716-.131-.036-14.526L16.143,43.5Z" fill="#1c75bc"/>
      </g>
      <g id="Group_1-208" data-name="Group 1" transform="translate(700 970)">
        <path id="Path_1-208" data-name="Path 1" d="M23.989,21.181l.191,14.525,38.735-.5.6,41.306L79.5,76.3,78.7,20.47Z" fill="#154c7a"/>
        <path id="Path_2-208" data-name="Path 2" d="M15.979,0,0,.04.2,58.063l54.716-.131-.036-14.526L16.143,43.5Z" fill="#1c75bc"/>
      </g>
      <g id="Group_1-209" data-name="Group 1" transform="translate(800 970)">
        <path id="Path_1-209" data-name="Path 1" d="M23.989,21.181l.191,14.525,38.735-.5.6,41.306L79.5,76.3,78.7,20.47Z" fill="#154c7a"/>
        <path id="Path_2-209" data-name="Path 2" d="M15.979,0,0,.04.2,58.063l54.716-.131-.036-14.526L16.143,43.5Z" fill="#1c75bc"/>
      </g>
      <g id="Group_1-210" data-name="Group 1" transform="translate(900 970)">
        <path id="Path_1-210" data-name="Path 1" d="M23.989,21.181l.191,14.525,38.735-.5.6,41.306L79.5,76.3,78.7,20.47Z" fill="#154c7a"/>
        <path id="Path_2-210" data-name="Path 2" d="M15.979,0,0,.04.2,58.063l54.716-.131-.036-14.526L16.143,43.5Z" fill="#1c75bc"/>
      </g>
      <g id="Group_1-211" data-name="Group 1" transform="translate(1000 970)">
        <path id="Path_1-211" data-name="Path 1" d="M23.989,21.181l.191,14.525,38.735-.5.6,41.306L79.5,76.3,78.7,20.47Z" fill="#154c7a"/>
        <path id="Path_2-211" data-name="Path 2" d="M15.979,0,0,.04.2,58.063l54.716-.131-.036-14.526L16.143,43.5Z" fill="#1c75bc"/>
      </g>
      <g id="Group_1-212" data-name="Group 1" transform="translate(1100 970)">
        <path id="Path_1-212" data-name="Path 1" d="M23.989,21.181l.191,14.525,38.735-.5.6,41.306L79.5,76.3,78.7,20.47Z" fill="#154c7a"/>
        <path id="Path_2-212" data-name="Path 2" d="M15.979,0,0,.04.2,58.063l54.716-.131-.036-14.526L16.143,43.5Z" fill="#1c75bc"/>
      </g>
      <g id="Group_1-213" data-name="Group 1" transform="translate(1200 970)">
        <path id="Path_1-213" data-name="Path 1" d="M23.989,21.181l.191,14.525,38.735-.5.6,41.306L79.5,76.3,78.7,20.47Z" fill="#154c7a"/>
        <path id="Path_2-213" data-name="Path 2" d="M15.979,0,0,.04.2,58.063l54.716-.131-.036-14.526L16.143,43.5Z" fill="#1c75bc"/>
      </g>
      <g id="Group_1-214" data-name="Group 1" transform="translate(1300 970)">
        <path id="Path_1-214" data-name="Path 1" d="M23.989,21.181l.191,14.525,38.735-.5.6,41.306L79.5,76.3,78.7,20.47Z" fill="#154c7a"/>
        <path id="Path_2-214" data-name="Path 2" d="M15.979,0,0,.04.2,58.063l54.716-.131-.036-14.526L16.143,43.5Z" fill="#1c75bc"/>
      </g>
      <g id="Group_1-215" data-name="Group 1" transform="translate(1400 970)">
        <path id="Path_1-215" data-name="Path 1" d="M23.989,21.181l.191,14.525,38.735-.5.6,41.306L79.5,76.3,78.7,20.47Z" fill="#154c7a"/>
        <path id="Path_2-215" data-name="Path 2" d="M15.979,0,0,.04.2,58.063l54.716-.131-.036-14.526L16.143,43.5Z" fill="#1c75bc"/>
      </g>
      <g id="Group_1-216" data-name="Group 1" transform="translate(1500 970)">
        <path id="Path_1-216" data-name="Path 1" d="M23.989,21.181l.191,14.525,38.735-.5.6,41.306L79.5,76.3,78.7,20.47Z" fill="#154c7a"/>
        <path id="Path_2-216" data-name="Path 2" d="M15.979,0,0,.04.2,58.063l54.716-.131-.036-14.526L16.143,43.5Z" fill="#1c75bc"/>
      </g>
      <g id="Group_1-217" data-name="Group 1" transform="translate(1600 970)">
        <path id="Path_1-217" data-name="Path 1" d="M23.989,21.181l.191,14.525,38.735-.5.6,41.306L79.5,76.3,78.7,20.47Z" fill="#154c7a"/>
        <path id="Path_2-217" data-name="Path 2" d="M15.979,0,0,.04.2,58.063l54.716-.131-.036-14.526L16.143,43.5Z" fill="#1c75bc"/>
      </g>
      <g id="Group_1-218" data-name="Group 1" transform="translate(1700 970)">
        <path id="Path_1-218" data-name="Path 1" d="M23.989,21.181l.191,14.525,38.735-.5.6,41.306L79.5,76.3,78.7,20.47Z" fill="#154c7a"/>
        <path id="Path_2-218" data-name="Path 2" d="M15.979,0,0,.04.2,58.063l54.716-.131-.036-14.526L16.143,43.5Z" fill="#1c75bc"/>
      </g>
      <g id="Group_1-219" data-name="Group 1" transform="translate(1800 970)">
        <path id="Path_1-219" data-name="Path 1" d="M23.989,21.181l.191,14.525,38.735-.5.6,41.306L79.5,76.3,78.7,20.47Z" fill="#154c7a"/>
        <path id="Path_2-219" data-name="Path 2" d="M15.979,0,0,.04.2,58.063l54.716-.131-.036-14.526L16.143,43.5Z" fill="#1c75bc"/>
      </g>
      <g id="Group_1-220" data-name="Group 1" transform="translate(1900 970)">
        <path id="Path_1-220" data-name="Path 1" d="M23.989,21.181l.191,14.525,38.735-.5.6,41.306L79.5,76.3,78.7,20.47Z" fill="#154c7a"/>
        <path id="Path_2-220" data-name="Path 2" d="M15.979,0,0,.04.2,58.063l54.716-.131-.036-14.526L16.143,43.5Z" fill="#1c75bc"/>
      </g>
      <g id="Group_1-221" data-name="Group 1" transform="translate(0 1067)">
        <path id="Path_1-221" data-name="Path 1" d="M23.989,21.181l.191,14.525,38.735-.5.6,41.306L79.5,76.3,78.7,20.47Z" fill="#154c7a"/>
        <path id="Path_2-221" data-name="Path 2" d="M15.979,0,0,.04.2,58.063l54.716-.131-.036-14.526L16.143,43.5Z" fill="#1c75bc"/>
      </g>
      <g id="Group_1-222" data-name="Group 1" transform="translate(100 1067)">
        <path id="Path_1-222" data-name="Path 1" d="M23.989,21.181l.191,14.525,38.735-.5.6,41.306L79.5,76.3,78.7,20.47Z" fill="#154c7a"/>
        <path id="Path_2-222" data-name="Path 2" d="M15.979,0,0,.04.2,58.063l54.716-.131-.036-14.526L16.143,43.5Z" fill="#1c75bc"/>
      </g>
      <g id="Group_1-223" data-name="Group 1" transform="translate(200 1067)">
        <path id="Path_1-223" data-name="Path 1" d="M23.989,21.181l.191,14.525,38.735-.5.6,41.306L79.5,76.3,78.7,20.47Z" fill="#154c7a"/>
        <path id="Path_2-223" data-name="Path 2" d="M15.979,0,0,.04.2,58.063l54.716-.131-.036-14.526L16.143,43.5Z" fill="#1c75bc"/>
      </g>
      <g id="Group_1-224" data-name="Group 1" transform="translate(300 1067)">
        <path id="Path_1-224" data-name="Path 1" d="M23.989,21.181l.191,14.525,38.735-.5.6,41.306L79.5,76.3,78.7,20.47Z" fill="#154c7a"/>
        <path id="Path_2-224" data-name="Path 2" d="M15.979,0,0,.04.2,58.063l54.716-.131-.036-14.526L16.143,43.5Z" fill="#1c75bc"/>
      </g>
      <g id="Group_1-225" data-name="Group 1" transform="translate(400 1067)">
        <path id="Path_1-225" data-name="Path 1" d="M23.989,21.181l.191,14.525,38.735-.5.6,41.306L79.5,76.3,78.7,20.47Z" fill="#154c7a"/>
        <path id="Path_2-225" data-name="Path 2" d="M15.979,0,0,.04.2,58.063l54.716-.131-.036-14.526L16.143,43.5Z" fill="#1c75bc"/>
      </g>
      <g id="Group_1-226" data-name="Group 1" transform="translate(500 1067)">
        <path id="Path_1-226" data-name="Path 1" d="M23.989,21.181l.191,14.525,38.735-.5.6,41.306L79.5,76.3,78.7,20.47Z" fill="#154c7a"/>
        <path id="Path_2-226" data-name="Path 2" d="M15.979,0,0,.04.2,58.063l54.716-.131-.036-14.526L16.143,43.5Z" fill="#1c75bc"/>
      </g>
      <g id="Group_1-227" data-name="Group 1" transform="translate(600 1067)">
        <path id="Path_1-227" data-name="Path 1" d="M23.989,21.181l.191,14.525,38.735-.5.6,41.306L79.5,76.3,78.7,20.47Z" fill="#154c7a"/>
        <path id="Path_2-227" data-name="Path 2" d="M15.979,0,0,.04.2,58.063l54.716-.131-.036-14.526L16.143,43.5Z" fill="#1c75bc"/>
      </g>
      <g id="Group_1-228" data-name="Group 1" transform="translate(700 1067)">
        <path id="Path_1-228" data-name="Path 1" d="M23.989,21.181l.191,14.525,38.735-.5.6,41.306L79.5,76.3,78.7,20.47Z" fill="#154c7a"/>
        <path id="Path_2-228" data-name="Path 2" d="M15.979,0,0,.04.2,58.063l54.716-.131-.036-14.526L16.143,43.5Z" fill="#1c75bc"/>
      </g>
      <g id="Group_1-229" data-name="Group 1" transform="translate(800 1067)">
        <path id="Path_1-229" data-name="Path 1" d="M23.989,21.181l.191,14.525,38.735-.5.6,41.306L79.5,76.3,78.7,20.47Z" fill="#154c7a"/>
        <path id="Path_2-229" data-name="Path 2" d="M15.979,0,0,.04.2,58.063l54.716-.131-.036-14.526L16.143,43.5Z" fill="#1c75bc"/>
      </g>
      <g id="Group_1-230" data-name="Group 1" transform="translate(900 1067)">
        <path id="Path_1-230" data-name="Path 1" d="M23.989,21.181l.191,14.525,38.735-.5.6,41.306L79.5,76.3,78.7,20.47Z" fill="#154c7a"/>
        <path id="Path_2-230" data-name="Path 2" d="M15.979,0,0,.04.2,58.063l54.716-.131-.036-14.526L16.143,43.5Z" fill="#1c75bc"/>
      </g>
      <g id="Group_1-231" data-name="Group 1" transform="translate(1000 1067)">
        <path id="Path_1-231" data-name="Path 1" d="M23.989,21.181l.191,14.525,38.735-.5.6,41.306L79.5,76.3,78.7,20.47Z" fill="#154c7a"/>
        <path id="Path_2-231" data-name="Path 2" d="M15.979,0,0,.04.2,58.063l54.716-.131-.036-14.526L16.143,43.5Z" fill="#1c75bc"/>
      </g>
      <g id="Group_1-232" data-name="Group 1" transform="translate(1100 1067)">
        <path id="Path_1-232" data-name="Path 1" d="M23.989,21.181l.191,14.525,38.735-.5.6,41.306L79.5,76.3,78.7,20.47Z" fill="#154c7a"/>
        <path id="Path_2-232" data-name="Path 2" d="M15.979,0,0,.04.2,58.063l54.716-.131-.036-14.526L16.143,43.5Z" fill="#1c75bc"/>
      </g>
      <g id="Group_1-233" data-name="Group 1" transform="translate(1200 1067)">
        <path id="Path_1-233" data-name="Path 1" d="M23.989,21.181l.191,14.525,38.735-.5.6,41.306L79.5,76.3,78.7,20.47Z" fill="#154c7a"/>
        <path id="Path_2-233" data-name="Path 2" d="M15.979,0,0,.04.2,58.063l54.716-.131-.036-14.526L16.143,43.5Z" fill="#1c75bc"/>
      </g>
      <g id="Group_1-234" data-name="Group 1" transform="translate(1300 1067)">
        <path id="Path_1-234" data-name="Path 1" d="M23.989,21.181l.191,14.525,38.735-.5.6,41.306L79.5,76.3,78.7,20.47Z" fill="#154c7a"/>
        <path id="Path_2-234" data-name="Path 2" d="M15.979,0,0,.04.2,58.063l54.716-.131-.036-14.526L16.143,43.5Z" fill="#1c75bc"/>
      </g>
      <g id="Group_1-235" data-name="Group 1" transform="translate(1400 1067)">
        <path id="Path_1-235" data-name="Path 1" d="M23.989,21.181l.191,14.525,38.735-.5.6,41.306L79.5,76.3,78.7,20.47Z" fill="#154c7a"/>
        <path id="Path_2-235" data-name="Path 2" d="M15.979,0,0,.04.2,58.063l54.716-.131-.036-14.526L16.143,43.5Z" fill="#1c75bc"/>
      </g>
      <g id="Group_1-236" data-name="Group 1" transform="translate(1500 1067)">
        <path id="Path_1-236" data-name="Path 1" d="M23.989,21.181l.191,14.525,38.735-.5.6,41.306L79.5,76.3,78.7,20.47Z" fill="#154c7a"/>
        <path id="Path_2-236" data-name="Path 2" d="M15.979,0,0,.04.2,58.063l54.716-.131-.036-14.526L16.143,43.5Z" fill="#1c75bc"/>
      </g>
      <g id="Group_1-237" data-name="Group 1" transform="translate(1600 1067)">
        <path id="Path_1-237" data-name="Path 1" d="M23.989,21.181l.191,14.525,38.735-.5.6,41.306L79.5,76.3,78.7,20.47Z" fill="#154c7a"/>
        <path id="Path_2-237" data-name="Path 2" d="M15.979,0,0,.04.2,58.063l54.716-.131-.036-14.526L16.143,43.5Z" fill="#1c75bc"/>
      </g>
      <g id="Group_1-238" data-name="Group 1" transform="translate(1700 1067)">
        <path id="Path_1-238" data-name="Path 1" d="M23.989,21.181l.191,14.525,38.735-.5.6,41.306L79.5,76.3,78.7,20.47Z" fill="#154c7a"/>
        <path id="Path_2-238" data-name="Path 2" d="M15.979,0,0,.04.2,58.063l54.716-.131-.036-14.526L16.143,43.5Z" fill="#1c75bc"/>
      </g>
      <g id="Group_1-239" data-name="Group 1" transform="translate(1800 1067)">
        <path id="Path_1-239" data-name="Path 1" d="M23.989,21.181l.191,14.525,38.735-.5.6,41.306L79.5,76.3,78.7,20.47Z" fill="#154c7a"/>
        <path id="Path_2-239" data-name="Path 2" d="M15.979,0,0,.04.2,58.063l54.716-.131-.036-14.526L16.143,43.5Z" fill="#1c75bc"/>
      </g>
      <g id="Group_1-240" data-name="Group 1" transform="translate(1900 1067)">
        <path id="Path_1-240" data-name="Path 1" d="M23.989,21.181l.191,14.525,38.735-.5.6,41.306L79.5,76.3,78.7,20.47Z" fill="#154c7a"/>
        <path id="Path_2-240" data-name="Path 2" d="M15.979,0,0,.04.2,58.063l54.716-.131-.036-14.526L16.143,43.5Z" fill="#1c75bc"/>
      </g>
    </g>
  </g>
</svg>
