<?xml version="1.0" encoding="UTF-8"?><svg id="Layer_1" xmlns="http://www.w3.org/2000/svg" xmlns:xlink="http://www.w3.org/1999/xlink" viewBox="0 0 391.5 223.71"><defs><style>.cls-1{fill:none;}.cls-2{clip-path:url(#clippath);}.cls-3{fill:#6a8eae;}.cls-4{fill:#9bd1e5;}.cls-5{fill:#1c75bc;}.cls-6{fill:#154c7a;}</style><clipPath id="clippath"><rect class="cls-1" x="-.3" y="-1" width="391.8" height="224.15"/></clipPath></defs><rect class="cls-4" x=".7" width="390.8" height="223.58"/><g class="cls-2"><path class="cls-6" d="m248.11,195.79l-.31-72.57,24.59-.06.25,50.22,37.37-.14.06,22.35-61.96.2Z"/><path class="cls-6" d="m271.24,29.09l1.22,85.91-24.58.32-.93-63.56-59.6.77-.29-22.35,84.19-1.09Z"/><path class="cls-6" d="m95.99,174.65l-.26-87.58-38,.09-.05-22.36,100.59-.24.05,22.36-38,.09.26,87.58-24.59.06Z"/><path class="cls-3" d="m-.3,121.57L-.12,35.66l24.58-.37,1.04,63.56,59.6-.88.33,22.35L-.3,121.57Z"/><path class="cls-3" d="m298.43,33.15l-.31-89.28,24.59-.06.25,66.93,59.61-.14.06,22.35-84.19.2Z"/><path class="cls-3" d="m339.43,239.14l-.31-89.28,24.59-.06.25,66.93,59.61-.14.06,22.35-84.19.2Z"/><path class="cls-5" d="m24.09-45.16l.44,72.57L-.06,27.51-.4-22.71l-37.37.21-.1-22.35,61.95-.31Z"/><path class="cls-5" d="m150.45,86.94l-.31-89.28,24.59-.06.25,66.93,59.61-.14.06,22.35-84.19.2Z"/><path class="cls-5" d="m60.41,162.39l.44,72.57-24.59.11-.34-50.22-37.37.21-.1-22.35,61.95-.31Z"/><path class="cls-5" d="m191.45,285.14l-.31-81.49,24.59-.06.25,66.93,59.61-.14.06,14.56-84.19.2Z"/><rect class="cls-1" x="-1.45" y="-1" width="392.34" height="224.15"/><path class="cls-6" d="m132.78,175.32v-78.83s21.07,0,21.07,0v12.39c2.15-4.5,4.94-7.69,8.37-9.57,3.43-1.88,7.29-2.82,11.58-2.82,1.39,0,15.97.64,16.61.97v17.3c-20.23-4.13-27.9,4.54-30.85,7.71-2.95,3.17-4.42,7.86-4.42,14.08v38.78h-22.36Z"/><path class="cls-6" d="m197.6,174.66c-8.47,0-15.18-2.44-20.11-7.32-4.94-4.88-7.4-12.41-7.4-22.6v-19.71h0c6.79-4.23,15.39-4.26,22.21-.09l.15.09v16.33c0,4.72.99,8.23,2.97,10.54,1.98,2.31,5.01,3.46,9.09,3.46,4.83,0,8.63-1.58,11.42-4.75,2.79-3.16,4.18-7.74,4.18-13.75v-40.38s22.36,0,22.36,0l-.12,78.83h-21.07l.12-11.44c-2.36,3.22-5.47,5.82-9.33,7.8-3.86,1.98-8.69,2.97-14.48,2.97Z"/><path class="cls-5" d="m279.71,141.81V62.98s21.07,0,21.07,0v12.39c2.15-4.5,4.94-7.69,8.37-9.57,3.43-1.88,7.29-2.82,11.58-2.82,1.39,0,15.97.64,16.61.97v17.3c-20.23-4.13-27.9,4.54-30.85,7.71-2.95,3.17-4.42,7.86-4.42,14.08v38.78h-22.36Z"/><path class="cls-5" d="m344.53,141.16c-8.47,0-15.18-2.44-20.11-7.32-4.94-4.88-7.4-12.41-7.4-22.6v-19.71h0c6.79-4.23,15.39-4.26,22.21-.09l.15.09v16.33c0,4.72.99,8.23,2.97,10.54,1.98,2.31,5.01,3.46,9.09,3.46,4.83,0,8.63-1.58,11.42-4.75,2.79-3.16,4.18-7.74,4.18-13.75v-40.38s22.36,0,22.36,0l-.12,78.83h-21.07l.12-11.44c-2.36,3.22-5.47,5.82-9.33,7.8-3.86,1.98-8.69,2.97-14.48,2.97Z"/><path class="cls-5" d="m138.62-23.39V55.44s-21.07,0-21.07,0v-12.39c-2.15,4.5-4.94,7.69-8.37,9.57-3.43,1.88-7.29,2.82-11.58,2.82-1.39,0-15.97-.64-16.61-.97v-17.3c20.23,4.13,27.9-4.54,30.85-7.71,2.95-3.17,4.42-7.86,4.42-14.08V-23.39h22.36Z"/><path class="cls-5" d="m73.8-22.74c8.47,0,15.18,2.44,20.11,7.32,4.94,4.88,7.4,12.41,7.4,22.6v19.71h0c-6.79,4.23-15.39,4.26-22.21.09l-.15-.09V10.56c0-4.72-.99-8.23-2.97-10.54-1.98-2.31-5.01-3.46-9.09-3.46-4.83,0-8.63,1.58-11.42,4.75-2.79,3.16-4.18,7.74-4.18,13.75v40.38s-22.36,0-22.36,0l.12-78.83h21.07l-.12,11.44c2.36-3.22,5.47-5.82,9.33-7.8,3.86-1.98,8.69-2.97,14.48-2.97Z"/><path class="cls-5" d="m179.62,182.32v78.83s-21.07,0-21.07,0v-12.39c-2.15,4.5-4.94,7.69-8.37,9.57-3.43,1.88-7.29,2.82-11.58,2.82-1.39,0-15.97-.64-16.61-.97v-17.3c20.23,4.13,27.9-4.54,30.85-7.71,2.95-3.17,4.42-7.86,4.42-14.08v-38.78h22.36Z"/><path class="cls-5" d="m114.8,182.97c8.47,0,15.18,2.44,20.11,7.32,4.94,4.88,7.4,12.41,7.4,22.6v19.71h0c-6.79,4.23-15.39,4.26-22.21.09l-.15-.09v-16.33c0-4.72-.99-8.23-2.97-10.54-1.98-2.31-5.01-3.46-9.09-3.46-4.83,0-8.63,1.58-11.42,4.75-2.79,3.16-4.18,7.74-4.18,13.75v40.38s-22.36,0-22.36,0l.12-78.83h21.07l-.12,11.44c2.36-3.22,5.47-5.82,9.33-7.8,3.86-1.98,8.69-2.97,14.48-2.97Z"/></g></svg>