<?xml version="1.0" encoding="UTF-8"?><svg id="Layer_1" xmlns="http://www.w3.org/2000/svg" xmlns:xlink="http://www.w3.org/1999/xlink" viewBox="0 0 393.47 224.84"><defs><style>.cls-1{fill:none;}.cls-2{clip-path:url(#clippath);}.cls-3{fill:#6a8eae;}.cls-4{fill:#1e537f;}.cls-5{fill:#154c7a;}.cls-6{clip-path:url(#clippath-1);}</style><clipPath id="clippath"><rect class="cls-1" x="-7.09" y="-6.6" width="406.7" height="238.4"/></clipPath><clipPath id="clippath-1"><rect class="cls-1" x="1.66" y="-272.56" width="393.77" height="227.05"/></clipPath></defs><g class="cls-2"><rect class="cls-3" x=".17" y=".64" width="392.68" height="224.39"/><rect class="cls-5" x="-24.7" y="-11.29" width="439.16" height="243.1"/><g><path class="cls-4" d="m223.92,202.35l-.31-72.65,24.61-.06.25,50.27,37.41-.14.06,22.37-62.02.2Z"/><path class="cls-4" d="m247.08,35.49l1.22,86-24.61.32-.93-63.62-59.66.77-.29-22.37,84.27-1.1Z"/><path class="cls-4" d="m71.64,181.19l-.26-87.67-38.04.09-.05-22.38,100.7-.24.05,22.38-38.04.09.26,87.67-24.61.06Z"/><path class="cls-4" d="m108.92,181.48l-.22-79.58,23.12-.06.02,10.44h3.36c1.36-3.74,3.62-6.48,6.79-8.22s6.86-2.63,11.09-2.64l11.19-.03.05,20.88-11.56.03c-5.97.01-10.88,1.61-14.72,4.79-3.85,3.18-5.76,8.06-5.75,14.65l.13,39.68-23.5.06Z"/><path class="cls-4" d="m174.74,182.03c-5.86.01-11-1.31-15.4-3.98-4.41-2.67-7.83-6.38-10.27-11.13-2.44-4.74-3.66-10.2-3.68-16.37l-.11-18.18,19.11-.05.1,16.67c.01,5.67,1.41,9.91,4.2,12.73,2.78,2.83,6.76,4.23,11.92,4.22,5.86-.01,10.41-1.97,13.63-5.87,3.23-3.9,4.83-9.34,4.82-16.32l-.09-38.22,19.11-.05.18,75.23-18.81.05-.02-9.86h-2.73c-1.21,2.54-3.47,5.02-6.81,7.45-3.33,2.43-8.39,3.66-15.16,3.68Z"/><path class="cls-4" d="m-.34-38.84L.1,33.8l-24.61.11-.34-50.27-37.41.21-.1-22.37,62.02-.31Z"/><path class="cls-4" d="m-24.75,128.06l.18-86L.04,41.7l1.04,63.62,59.66-.88.33,22.37-85.83,1.25Z"/><path class="cls-4" d="m114.72-8.82l.34,70.23-23.12.1-.04-10.44h-3.36c-1.35,3.74-3.61,6.49-6.77,8.24s-6.86,2.64-11.08,2.66l-11.19.05-.09-20.88,11.56-.05c5.97-.02,10.88-1.63,14.71-4.82,3.84-3.18,5.75-8.07,5.72-14.66l-.18-30.32,23.5-.1Z"/><path class="cls-4" d="m48.89-18.61c5.86-.02,11,1.29,15.41,3.95,4.41,2.66,7.84,6.36,10.29,11.11,2.45,4.74,3.68,10.19,3.71,16.36l.14,18.18-19.11.08-.13-16.67c-.02-5.67-1.43-9.9-4.22-12.72-2.79-2.83-6.76-4.22-11.92-4.2-5.86.02-10.4,1.99-13.62,5.89-3.22,3.91-4.82,9.35-4.79,16.33l.16,38.22-19.11.08-.31-75.23,18.81-.08.04,9.86h2.73c1.2-2.54,3.46-5.03,6.79-7.47,3.32-2.44,8.38-3.68,15.15-3.7Z"/><path class="cls-4" d="m370.76,150.69l-.31-72.65,24.61-.06.25,50.27,37.41-.14,1.62,22.37-63.58.2Z"/><path class="cls-4" d="m274.29,39.55l-.31-42.59,24.61-.06.25,20.21,59.67-.14.06,22.37-84.28.2Z"/><path class="cls-4" d="m255.76,136.05l-.22-70.23,23.12-.06.02,10.44h3.36c1.36-3.74,3.62-6.48,6.79-8.22,3.16-1.75,6.86-2.63,11.09-2.64l11.19-.03.05,20.88-11.56.03c-5.97.01-10.88,1.61-14.72,4.79-3.85,3.18-5.76,8.06-5.75,14.65l.13,30.32-23.5.06Z"/><path class="cls-4" d="m321.59,145.96c-5.86.01-11-1.31-15.4-3.98-4.41-2.67-7.83-6.38-10.27-11.13-2.44-4.74-3.66-10.2-3.68-16.37l-.11-18.18,19.11-.05.1,16.67c.01,5.67,1.41,9.91,4.2,12.73,2.78,2.83,6.76,4.23,11.92,4.22,5.86-.01,10.41-1.97,13.63-5.87,3.23-3.9,4.83-9.34,4.82-16.32l-.09-38.22,19.11-.05.18,75.23-18.81.05-.02-9.86h-2.73c-1.21,2.54-3.47,5.02-6.81,7.45-3.33,2.43-8.39,3.66-15.16,3.68Z"/><path class="cls-4" d="m126.16,93.39l-.31-89.37,24.61-.06.25,67,59.67-.14.06,22.37-84.28.2Z"/><path class="cls-4" d="m40.7,167.36l.44,72.65-24.61.11-.34-50.27-37.41.21-.1-22.37,62.02-.31Z"/><path class="cls-4" d="m155.76,197.38l.34,70.23-23.12.1-.04-10.44h-3.36c-1.35,3.74-3.61,6.49-6.77,8.24-3.16,1.75-6.86,2.64-11.08,2.66l-11.19.05-.09-20.88,11.56-.05c5.97-.02,10.88-1.63,14.71-4.82,3.84-3.18,5.75-8.07,5.72-14.66l-.18-30.32,23.5-.1Z"/><path class="cls-4" d="m89.92,187.6c5.86-.02,11,1.29,15.41,3.95,4.41,2.66,7.84,6.36,10.29,11.11,2.45,4.74,3.68,10.19,3.71,16.36l.14,18.18-19.11.08-.13-16.67c-.02-5.67-1.43-9.9-4.22-12.72-2.79-2.83-6.76-4.22-11.92-4.2-5.86.02-10.4,1.99-13.62,5.89-3.22,3.91-4.82,9.35-4.79,16.33l.16,38.22-19.11.08-.31-75.23,18.81-.08.04,9.86h2.73c1.2-2.54,3.46-5.03,6.79-7.47,3.32-2.44,8.38-3.68,15.15-3.7Z"/><path class="cls-4" d="m315.33,245.75l-.31-89.37,24.61-.06.25,67,59.67-.14.06,22.37-84.28.2Z"/><path class="cls-4" d="m167.2,299.6l-.31-89.37,24.61-.06.25,67,59.67-.14.06,22.37-84.28.2Z"/></g></g><g class="cls-6"><path class="cls-4" d="m169.16,28.18l-.31-89.37,24.61-.06.25,67,59.67-.14.06,22.37-84.28.2Z"/></g></svg>