<?xml version="1.0" encoding="UTF-8"?><svg id="Layer_1" xmlns="http://www.w3.org/2000/svg" viewBox="0 0 142.18 100.79"><defs><style>.cls-1{fill:#231f20;stroke:#231f20;stroke-miterlimit:10;stroke-width:2.37px;}</style></defs><path class="cls-1" d="m71.32,1.19c18.05,0,36.11-.02,54.16,0,9.77.02,15.47,5.7,15.49,15.47.03,22.43.04,44.85,0,67.28-.02,9.61-6.02,15.63-15.55,15.64-36.25.02-72.49.03-108.74,0-9.35,0-15.43-5.97-15.45-15.26-.06-22.71-.06-45.41,0-68.12.02-9.26,5.8-14.97,15.09-14.99,18.34-.05,36.67-.01,55.01-.01ZM7.86,20.31c0,21.61-.02,42.2.01,62.78,0,6.77,2.7,9.5,9.5,9.51,35.82.03,71.65.03,107.47,0,6.76,0,9.43-2.77,9.44-9.55.02-20.31.01-40.62,0-60.93,0-1.03-.15-2.07-.26-3.55-1.39.91-2.33,1.48-3.23,2.12-14.49,10.25-28.99,20.48-43.46,30.76-10.43,7.41-17.49,7.67-28.37.87-7.28-4.55-14.55-9.13-21.83-13.69-9.5-5.95-19-11.9-29.27-18.32Zm124.32-9.11c.03-.47.05-.95.08-1.42-2.04-.54-4.07-1.5-6.12-1.55-8.18-.18-16.36-.08-24.55-.08-28.36,0-56.72.02-85.08-.02-3.48,0-6.28.8-7.71,4.55,18.66,11.7,37.09,23.39,55.68,34.81,4.73,2.91,10.37,4.12,15.24.75,17.62-12.16,34.99-24.67,52.46-37.04Z"/></svg>