<?xml version="1.0" encoding="utf-8"?>
<!-- Generator: Adobe Illustrator 27.2.0, SVG Export Plug-In . SVG Version: 6.00 Build 0)  -->
<svg version="1.1" id="Layer_1" xmlns="http://www.w3.org/2000/svg" xmlns:xlink="http://www.w3.org/1999/xlink" x="0px" y="0px"
	 viewBox="0 0 142.2 100.8" style="enable-background:new 0 0 142.2 100.8;" xml:space="preserve">
<style type="text/css">
	.st0{fill:#FFFFFF;}
</style>
<g>
	<path class="st0" d="M71.3,1.2c18,0,36.1,0,54.2,0c9.8,0,15.5,5.7,15.5,15.5c0,22.4,0,44.8,0,67.3c0,9.6-6,15.6-15.6,15.6
		c-36.2,0-72.5,0-108.7,0c-9.4,0-15.4-6-15.4-15.3c-0.1-22.7-0.1-45.4,0-68.1c0-9.3,5.8-15,15.1-15C34.7,1.2,53,1.2,71.3,1.2
		L71.3,1.2z M7.9,20.3c0,21.6,0,42.2,0,62.8c0,6.8,2.7,9.5,9.5,9.5c35.8,0,71.7,0,107.5,0c6.8,0,9.4-2.8,9.4-9.6
		c0-20.3,0-40.6,0-60.9c0-1-0.1-2.1-0.3-3.5c-1.4,0.9-2.3,1.5-3.2,2.1c-14.5,10.2-29,20.5-43.5,30.8c-10.4,7.4-17.5,7.7-28.4,0.9
		c-7.3-4.5-14.5-9.1-21.8-13.7C27.6,32.7,18.1,26.7,7.9,20.3z M132.2,11.2c0-0.5,0.1-0.9,0.1-1.4c-2-0.5-4.1-1.5-6.1-1.6
		C118,8,109.8,8.1,101.6,8.1c-28.4,0-56.7,0-85.1,0c-3.5,0-6.3,0.8-7.7,4.6c18.7,11.7,37.1,23.4,55.7,34.8
		c4.7,2.9,10.4,4.1,15.2,0.8C97.3,36.1,114.7,23.6,132.2,11.2z"/>
	<path class="st0" d="M65.5,100.8c-16.1,0-32.4,0-48.8,0C6.6,100.8,0.1,94.3,0,84.3C0,61.7,0,38.8,0,16.2C0.1,6.2,6.3,0,16.3,0
		C29,0,41.7,0,54.4,0c4.7,0,9.5,0,14.2,0l2.8,0l18.1,0c12,0,24.1,0,36.1,0c10.4,0,16.7,6.2,16.7,16.7c0,26.1,0,47.5,0,67.3
		c0,10.2-6.6,16.8-16.7,16.8C106.2,100.8,86.1,100.8,65.5,100.8z M37.4,2.4c-7,0-14.1,0-21.1,0C7.6,2.4,2.4,7.6,2.4,16.2
		c-0.1,22.6-0.1,45.5,0,68.1c0,8.7,5.5,14.1,14.3,14.1c37.5,0,74.4,0,108.7,0c8.8,0,14.3-5.5,14.4-14.5c0-19.8,0-41.1,0-67.3
		c0-9.1-5.2-14.3-14.3-14.3c-12,0-24.1,0-36.1,0l-15.2,0l0,0h-2.9c-5.7,0-11.3,0-17,0C48.7,2.4,43.1,2.4,37.4,2.4z M71.1,93.8
		c-18,0-35.9,0-53.7,0c-7.5,0-10.7-3.2-10.7-10.7c0-14.7,0-29.3,0-44.4l0-20.5l1.8,1.1c9.9,6.2,19.1,11.9,28.2,17.7l1.1,0.7
		c3.1,1.9,6.2,3.9,9.3,5.8c4.2,2.6,8.4,5.3,12.6,7.9c10.4,6.5,17,6.3,27.1-0.8c10.5-7.5,21.1-14.9,31.6-22.4l11.9-8.4
		c0.6-0.4,1.2-0.8,2-1.3c0.4-0.3,0.8-0.5,1.3-0.8l1.7-1.1l0.1,2c0,0.5,0.1,1,0.1,1.4c0.1,0.8,0.1,1.5,0.1,2.2c0,20.3,0,40.6,0,60.9
		c0,7.4-3.3,10.7-10.6,10.7C107,93.8,89.1,93.8,71.1,93.8z M9,22.4l0,16.3c0,15,0,29.7,0,44.4c0,6.1,2.2,8.3,8.3,8.3
		c35.7,0,71.8,0,107.5,0c6.1,0,8.2-2.2,8.3-8.4c0-20.3,0-40.6,0-60.9c0-0.5,0-1-0.1-1.5c-0.6,0.4-1.1,0.7-1.5,1L119.6,30
		C109.1,37.5,98.5,44.9,88,52.4c-10.9,7.7-18.4,8-29.7,0.9c-4.2-2.6-8.4-5.3-12.6-7.9c-3.1-1.9-6.2-3.9-9.3-5.8L35.4,39
		C26.8,33.6,18.2,28.2,9,22.4z M73.2,51.5c-3,0-6.1-1-9.4-3c-13.6-8.4-27.4-17.1-40.8-25.4c-5-3.1-9.9-6.2-14.9-9.4l-0.8-0.5
		l0.3-0.9c1.8-4.7,5.7-5.3,8.8-5.3c21.3,0,42.5,0,63.8,0l21.3,0c2.2,0,4.3,0,6.5,0c5.9,0,12.1,0,18.1,0.1c1.6,0,3.1,0.5,4.5,1
		c0.6,0.2,1.2,0.4,1.9,0.6l0.9,0.2l-0.2,3l-0.5,0.3c-5,3.5-10,7.1-15,10.6C105.6,31.5,93,40.5,80.4,49.2
		C78.2,50.7,75.8,51.5,73.2,51.5z M10.3,12.2c4.7,2.9,9.4,5.9,14,8.8c13.3,8.4,27.1,17.1,40.8,25.4c3,1.8,8.8,4.4,13.9,0.8
		c12.6-8.7,25.2-17.7,37.5-26.4c4.8-3.4,9.6-6.8,14.4-10.2c-0.3-0.1-0.7-0.2-1-0.3c-1.3-0.4-2.6-0.9-3.8-0.9
		c-6-0.1-12.1-0.1-18.1-0.1c-2.2,0-4.3,0-6.5,0l-21.3,0c-21.3,0-42.5,0-63.8,0C13.2,9.3,11.4,10.1,10.3,12.2z"/>
</g>
</svg>
