<?xml version="1.0" encoding="UTF-8"?><svg id="Layer_1" xmlns="http://www.w3.org/2000/svg" viewBox="0 0 143.71 143.74"><defs><style>.cls-1{fill:#231f20;}</style></defs><path class="cls-1" d="m107.49,143.74H36.2c-1.42-.25-2.86-.43-4.26-.76-16.02-3.77-26.32-13.56-30.77-29.42-.55-1.96-.79-4-1.18-6.01,0-23.76,0-47.51,0-71.27.1-.49.18-.99.31-1.48.95-3.55,1.41-7.32,2.94-10.61C10.45,8.68,22.71.35,39.88.14c21.32-.26,42.65-.09,63.98-.03,2.65,0,5.34.24,7.93.76,18.66,3.78,31.84,19.84,31.88,38.86.05,21.46.04,42.92-.02,64.39,0,2.55-.18,5.17-.75,7.65-3.69,16.04-13.52,26.33-29.38,30.78-1.97.55-4.02.79-6.03,1.18ZM71.84,12.94v-.07c-10.43,0-20.86,0-31.29,0-3.2,0-6.33.35-9.38,1.36-10.36,3.43-18.49,13.45-18.4,26.25.14,20.95.04,41.9.03,62.85,0,3.15.36,6.23,1.36,9.24,3.44,10.39,13.5,18.49,26.25,18.4,20.95-.14,41.91-.04,62.86-.03,3.15,0,6.23-.36,9.24-1.36,10.44-3.47,18.47-13.49,18.4-26.11-.11-21.04-.04-42.09-.02-63.13,0-4.52-.79-8.85-2.95-12.82-4.86-8.93-12.34-14.17-22.56-14.49-11.17-.35-22.35-.08-33.53-.08Z"/><path class="cls-1" d="m108.88,71.86c.03,20.36-16.58,37.02-36.95,37.07-20.42.05-37.13-16.63-37.11-37.05.02-20.37,16.65-37,37.02-37,20.37,0,37.02,16.61,37.04,36.98Zm-12.83.07c.02-13.41-10.79-24.23-24.21-24.23-13.38,0-24.11,10.7-24.2,24.1-.08,13.4,10.7,24.24,24.14,24.3,13.41.05,24.24-10.74,24.27-24.17Z"/><path class="cls-1" d="m110.49,42.75c-5.17.03-9.42-4.16-9.43-9.3-.01-5.1,4.28-9.4,9.38-9.39,5.11.01,9.4,4.32,9.37,9.41-.03,5.09-4.21,9.25-9.32,9.28Z"/></svg>