<?xml version="1.0" encoding="utf-8"?>
<!-- Generator: Adobe Illustrator 27.2.0, SVG Export Plug-In . SVG Version: 6.00 Build 0)  -->
<svg version="1.1" id="Layer_1" xmlns="http://www.w3.org/2000/svg" xmlns:xlink="http://www.w3.org/1999/xlink" x="0px" y="0px"
	 viewBox="0 0 143.7 143.7" style="enable-background:new 0 0 143.7 143.7;" xml:space="preserve">
<style type="text/css">
	.st0{fill:#FFFFFF;}
</style>
<path class="st0" d="M107.5,143.7H36.2c-1.4-0.2-2.9-0.4-4.3-0.8c-16-3.8-26.3-13.6-30.8-29.4c-0.6-2-0.8-4-1.2-6V36.3
	c0.1-0.5,0.2-1,0.3-1.5c0.9-3.5,1.4-7.3,2.9-10.6c7.2-15.5,19.5-23.8,36.6-24c21.3-0.3,42.7-0.1,64,0c2.7,0,5.3,0.2,7.9,0.8
	c18.7,3.8,31.8,19.8,31.9,38.9c0.1,21.5,0,42.9,0,64.4c0,2.6-0.2,5.2-0.8,7.7c-3.7,16-13.5,26.3-29.4,30.8
	C111.6,143.1,109.5,143.3,107.5,143.7L107.5,143.7L107.5,143.7z M71.8,12.9L71.8,12.9l-31.3-0.1c-3.2,0-6.3,0.4-9.4,1.4
	c-10.4,3.4-18.5,13.5-18.4,26.2c0.1,21,0,41.9,0,62.9c0,3.2,0.4,6.2,1.4,9.2c3.4,10.4,13.5,18.5,26.3,18.4c21-0.1,41.9,0,62.9,0
	c3.2,0,6.2-0.4,9.2-1.4c10.4-3.5,18.5-13.5,18.4-26.1c-0.1-21,0-42.1,0-63.1c0-4.5-0.8-8.9-2.9-12.8c-4.9-8.9-12.3-14.2-22.6-14.5
	C94.2,12.7,83,13,71.8,12.9L71.8,12.9L71.8,12.9z"/>
<path class="st0" d="M108.9,71.9c0,20.4-16.6,37-36.9,37.1c-20.4,0.1-37.1-16.6-37.1-37c0-20.4,16.7-37,37-37S108.9,51.5,108.9,71.9
	z M96.1,71.9c0-13.4-10.8-24.2-24.2-24.2S47.7,58.4,47.6,71.8C47.6,85.2,58.3,96,71.8,96.1C85.2,96.2,96,85.4,96.1,71.9z"/>
<path class="st0" d="M110.5,42.8c-5.2,0-9.4-4.2-9.4-9.3c0-5.1,4.3-9.4,9.4-9.4c5.1,0,9.4,4.3,9.4,9.4S115.6,42.7,110.5,42.8z"/>
</svg>
