<?xml version="1.0" encoding="UTF-8"?><svg id="Layer_1" xmlns="http://www.w3.org/2000/svg" viewBox="0 0 250.83 38.21"><defs><style>.cls-1{fill:#231f20;}</style></defs><path class="cls-1" d="m28.56,38.06V.32s10.75,0,10.75,0v37.74s-10.75,0-10.75,0Z"/><path class="cls-1" d="m46.99,38.21v-8.04l17.55-20.37h-20.73s-.11-9.8-.11-9.8h34.18l.11,8.85-17.63,20.37h18.4v8.99h-31.77Z"/><path class="cls-1" d="m110.56,38.21V9.82s-14.92,0-14.92,0V0h41.44v9.82h-15.07v28.39h-11.44Z"/><path class="cls-1" d="m141.81,38.21V.32s10.13,0,10.13,0v5.95c1.03-2.16,2.37-3.7,4.02-4.6,1.65-.9,3.5-1.35,5.57-1.35.67,0,7.68.31,7.98.46v8.32c-9.72-1.98-13.41,2.18-14.83,3.7-1.42,1.52-2.13,3.78-2.13,6.76v18.64h-10.75Z"/><path class="cls-1" d="m172.97,37.89c-4.07,0-7.29-1.17-9.66-3.52-2.37-2.34-3.56-5.96-3.56-10.86v-9.47h0c3.26-2.03,7.39-2.05,10.67-.04l.07.04v7.85c0,2.27.48,3.96,1.43,5.06.95,1.11,2.41,1.66,4.37,1.66,2.32,0,4.15-.76,5.49-2.28,1.34-1.52,2.01-3.72,2.01-6.61V.32s10.74,0,10.74,0l-.06,37.89h-10.13l.06-5.5c-1.13,1.55-2.63,2.8-4.48,3.75-1.85.95-4.17,1.43-6.96,1.43Z"/><path class="cls-1" d="m198.62,38.05l-.16-37.54,10.8-.03.13,25.98,12.96-.07.03,11.56-23.76.1Z"/><path class="cls-1" d="m.16,37.89L0,.36l10.8-.03.13,25.98,12.96-.07.03,11.56-23.76.1Z"/><path class="cls-1" d="m227.07,38.05l-.16-37.54,10.8-.03.13,25.98,12.96-.07.03,11.56-23.76.1Z"/></svg>